<svg xmlns="http://www.w3.org/2000/svg" viewBox="0 0 128 128" >
  <path
    d="M121.55 57.217c1.562 0 3.076.19 4.531.537.167.04.33.06.484.06.833 0 1.435-.567 1.435-1.5V34.977c0-4.894-3.96-8.86-8.847-8.86H95.916a19.786 19.786 0 0 0 1.029-6.274C96.945 8.883 88.074 0 77.13 0 66.19 0 57.32 8.883 57.32 19.843c0 2.195.37 4.3 1.028 6.274H35.11c-4.886 0-8.846 3.966-8.846 8.86v23.337a19.688 19.688 0 0 0-6.45-1.097C8.871 57.217 0 66.101 0 77.06 0 88.016 8.87 96.9 19.814 96.9c2.262 0 4.425-.398 6.45-1.096v23.337c0 4.893 3.96 8.859 8.846 8.859h21.24c1.104 0 1.705-.849 1.46-1.925a19.59 19.59 0 0 1-.491-4.355c0-10.96 8.87-19.843 19.812-19.843 10.943 0 19.814 8.883 19.814 19.843a19.59 19.59 0 0 1-.491 4.355c-.245 1.076.356 1.925 1.46 1.925h21.24c4.886 0 8.846-3.966 8.846-8.86V97.805c0-.932-.602-1.5-1.436-1.5-.153 0-.316.02-.483.06-1.455.347-2.97.536-4.53.536-10.944 0-19.815-8.884-19.815-19.84 0-10.959 8.87-19.843 19.815-19.843zM97.737 77.06c0 13.146 10.683 23.841 23.815 23.841.816 0 1.634-.043 2.449-.129v18.37c0 2.68-2.174 4.859-4.847 4.859h-18.32c.075-.759.112-1.52.112-2.28 0-13.147-10.683-23.843-23.814-23.843-13.13 0-23.812 10.696-23.812 23.843 0 .76.037 1.521.111 2.28H35.11c-2.672 0-4.846-2.18-4.846-4.86V95.805a4 4 0 0 0-5.305-3.782 15.747 15.747 0 0 1-5.145.878C11.094 92.9 4 85.794 4 77.06c0-8.736 7.094-15.843 15.814-15.843 1.727 0 3.457.296 5.143.878a3.996 3.996 0 0 0 3.628-.523 4 4 0 0 0 1.679-3.258V34.977c0-2.68 2.174-4.86 4.846-4.86h23.237a4.001 4.001 0 0 0 3.795-5.264 15.824 15.824 0 0 1-.823-5.01C61.319 11.107 68.412 4 77.13 4c8.72 0 15.814 7.107 15.814 15.843 0 1.686-.277 3.371-.823 5.009a4 4 0 0 0 3.794 5.265h23.237c2.673 0 4.847 2.18 4.847 4.86v18.37a23.357 23.357 0 0 0-2.45-.13c-13.13 0-23.814 10.696-23.814 23.842z"
    fill="#000000"></path>
</svg>