<svg xmlns="http://www.w3.org/2000/svg" data-name="Layer 1" viewBox="0 0 168 168" width="50">
    <path fill="#2d4356"
        d="M95.45313 96.53418l.03418-.084a3.99715 3.99715 0 0 0 .29492-1.49072A10.87289 10.87289 0 0 0 92.798 87.12988a11.14367 11.14367 0 0 0-4.01477-2.624l-.00671-.55859a4.00061 4.00061 0 0 0-4-3.94727c-.02148 0-.042 0-.06348.00049l-2.8623.04541a4.001 4.001 0 0 0-3.93652 4.05078l.0058.393a11.59013 11.59013 0 0 0-4.01172 2.4585 10.71749 10.71749 0 0 0-.7998 14.2876 4.00051 4.00051 0 0 0-2.60547 2.044l-.05267.1015a3.99167 3.99167 0 0 0-.4502 1.81738 10.371 10.371 0 0 0 3.709 8.55231 12.783 12.783 0 0 0 4.26947 2.26361v.03961a4.00168 4.00168 0 0 0 4 3.9458c.02155 0 .042 0 .06354-.00049l2.86121-.04541a4.00029 4.00029 0 0 0 3.93652-4.05273l-.00183-.09277a11.62518 11.62518 0 0 0 3.98438-2.38568 10.00973 10.00973 0 0 0 3.17664-7.69983 10.21465 10.21465 0 0 0-2.667-7.02338A4.00229 4.00229 0 0 0 95.45313 96.53418zM90.1084 110.48486a9.05344 9.05344 0 0 1-5.3125 2.1601l.04395 3.30963L81.97858 116l-.04486-3.30859a9.86613 9.86613 0 0 1-5.709-2.05029 6.49464 6.49464 0 0 1-2.22455-5.4165l.05267-.10162 5.1153-.082a3.72117 3.72117 0 0 0 1.165 3.04694 4.41853 4.41853 0 0 0 2.82416.86908c.03711 0 .0752-.00049.11328-.00092a3.8061 3.8061 0 0 0 2.6358-.84869 2.83223 2.83223 0 0 0 .85254-2.21478 2.95465 2.95465 0 0 0-.87219-2.1944 8.52658 8.52658 0 0 0-3.03113-1.55609 17.13229 17.13229 0 0 1-6.07031-2.876 5.95352 5.95352 0 0 1-2.0274-4.73975 6.046 6.046 0 0 1 1.9024-4.6748 8.88415 8.88415 0 0 1 5.2998-2.21149l-.0459-3.59467L84.77649 84l.04773 3.64447a8.16057 8.16057 0 0 1 5.1095 2.27789 6.839 6.839 0 0 1 1.84851 5.02l-.03418.084-5.13074.083a4.036 4.036 0 0 0-.92871-2.7998 3.15423 3.15423 0 0 0-2.42682-.94287c-.02631 0-.05267 0-.08008.00049a3.19422 3.19422 0 0 0-2.43842.86279 3.15322 3.15322 0 0 0-.72559 2.22852 2.72717 2.72717 0 0 0 .82806 2.05371 9.87537 9.87537 0 0 0 3.0918 1.61279 16.00676 16.00676 0 0 1 6.01654 2.86957 6.08446 6.08446 0 0 1 2.04492 4.78082A6.0081 6.0081 0 0 1 90.1084 110.48486zM111.207 44.24518a3 3 0 1 0-2.98975-3.01019A3.00366 3.00366 0 0 0 111.207 44.24518zm.01526-4.5a1.5 1.5 0 1 1-1.505 1.49493A1.50167 1.50167 0 0 1 111.22229 39.74518zM42.2381 28.9494a3 3 0 1 0-2.98975-3.01019A3.00345 3.00345 0 0 0 42.2381 28.9494zm.01532-4.5a1.5 1.5 0 1 1-1.50507 1.49487A1.50149 1.50149 0 0 1 42.25342 24.4494zM141.0166 9.25507a2 2 0 1 0-1.99316-2.00684A2.00247 2.00247 0 0 0 141.0166 9.25507zm.01025-3a1 1 0 1 1-1.00342.99658A1.001 1.001 0 0 1 141.02686 6.25507zM136.11548 34.05121a2 2 0 1 0-1.99316-2.00684A2.00232 2.00232 0 0 0 136.11548 34.05121zm.01025-3a1 1 0 1 1-1.00342.99658A1.001 1.001 0 0 1 136.12573 31.05121zM17.16364 19.769a2 2 0 1 0-1.99323-2.00677A2.00234 2.00234 0 0 0 17.16364 19.769zm.01019-3a1 1 0 1 1-1.00342.99658A1.001 1.001 0 0 1 17.17383 16.769z"
        class="color2d4356 svgShape"></path>
    <circle cx="2" cy="146" r="2" fill="#2d4356" class="color2d4356 svgShape"></circle>
    <path fill="#2d4356"
        d="M11 144H8a2 2 0 0 0 0 4h3a2 2 0 0 0 0-4zM160 144h-3a2 2 0 0 0 0 4h3a2 2 0 0 0 0-4z"
        class="color2d4356 svgShape"></path>
    <circle cx="166" cy="146" r="2" fill="#2d4356" class="color2d4356 svgShape"></circle>
    <path fill="#2d4356"
        d="M150.72131,144H131.33618a7.41425,7.41425,0,0,0,.60913-3.98584l-7.12207-81.02838c-.51172-4.4101-4.5-6.98578-8.9071-6.98578h-12.916V42c0-12.13086-8.52344-22-19-22s-19,9.86914-19,22V52h-12.917c-4.40723,0-8.39557,2.57568-8.90723,6.98578l-7.12109,81.02838A7.41188,7.41188,0,0,0,36.66357,144H17.27869a2.017,2.017,0,1,0,0,4H150.72131a2.017,2.017,0,1,0,0-4ZM69.00012,42c0-9.92529,6.72845-18,15-18s15,8.07471,15,18V52h-30Zm58.25769,101.02246A3.05922,3.05922,0,0,1,124.89368,144H43.10651a3.06055,3.06055,0,0,1-2.36523-.978,3.20472,3.20472,0,0,1-.71289-2.5459l.00592-.05566.00488-.05615,7.11523-80.96289C47.45618,57.05219,49.84088,56,52.08313,56h12.917v6h-1a2,2,0,0,0,0,4h6a2,2,0,0,0,0-4h-1V56h30v6h-1a2,2,0,0,0,0,4h6a2,2,0,0,0,0-4h-1V56h12.916c2.24207,0,4.627,1.05219,4.92859,3.40186l7.11621,80.9624.00488.0556.006.05524A3.20374,3.20374,0,0,1,127.25781,143.02246Z"
        class="color2d4356 svgShape"></path>
    <path fill="#0bceb2"
        d="M98.00012,138a2,2,0,1,0,0-4H53.44537a4.05623,4.05623,0,0,1-2.99408-.95459,2.27786,2.27786,0,0,1-.418-1.87891l3.40234-38.99274a1.99972,1.99972,0,1,0-3.98431-.3476l-3.39648,38.93262a6.09035,6.09035,0,0,0,1.40717,4.94427A7.82316,7.82316,0,0,0,53.44537,138Z"
        class="color0bceb2 svgShape"></path>
    <circle cx="106" cy="136" r="2" fill="#0bceb2" class="color0bceb2 svgShape"></circle>
    <polygon fill="#0bceb2"
        points="60.736 6.279 59.243 8.182 60.133 8.749 61.158 6.546 61.188 6.546 62.12 8.74 63.108 8.18 61.612 6.297 61.612 6.266 63.973 6.555 63.977 5.492 61.614 5.796 61.614 5.765 63.107 3.815 62.17 3.28 61.209 5.466 61.177 5.466 60.215 3.288 59.258 3.833 60.722 5.747 60.722 5.778 58.423 5.473 58.419 6.536 60.736 6.247 60.736 6.279"
        class="color0bceb2 svgShape"></polygon>
    <polygon fill="#0bceb2"
        points="57.926 36.961 57.066 38.057 57.579 38.383 58.169 37.114 58.187 37.115 58.723 38.378 59.292 38.056 58.431 36.971 58.431 36.953 59.791 37.12 59.793 36.507 58.432 36.683 58.432 36.665 59.292 35.542 58.752 35.233 58.198 36.493 58.18 36.493 57.626 35.238 57.075 35.552 57.918 36.654 57.918 36.672 56.594 36.496 56.592 37.109 57.926 36.943 57.926 36.961"
        class="color0bceb2 svgShape"></polygon>
    <polygon fill="#0bceb2"
        points="8.432 56.665 9.292 55.542 8.752 55.233 8.198 56.493 8.18 56.493 7.626 55.238 7.075 55.552 7.918 56.654 7.918 56.672 6.594 56.496 6.592 57.109 7.926 56.943 7.926 56.961 7.066 58.057 7.579 58.383 8.169 57.114 8.187 57.115 8.723 58.378 9.292 58.056 8.431 56.971 8.431 56.953 9.791 57.12 9.793 56.507 8.432 56.683 8.432 56.665"
        class="color0bceb2 svgShape"></polygon>
    <polygon fill="#0bceb2"
        points="159.103 55.958 159.106 54.915 156.788 55.214 156.788 55.183 158.253 53.27 157.334 52.745 156.391 54.89 156.359 54.89 155.416 52.754 154.477 53.288 155.914 55.165 155.914 55.196 153.658 54.896 153.654 55.94 155.927 55.656 155.927 55.687 154.462 57.554 155.335 58.11 156.341 55.949 156.371 55.949 157.285 58.101 158.254 57.552 156.787 55.705 156.787 55.674 159.103 55.958"
        class="color0bceb2 svgShape"></polygon>
    <polygon fill="#0bceb2"
        points="98.899 16.134 97.635 17.745 98.388 18.224 99.256 16.36 99.282 16.36 100.07 18.217 100.906 17.743 99.64 16.15 99.64 16.123 101.638 16.369 101.641 15.468 99.642 15.726 99.642 15.7 100.905 14.05 100.112 13.597 99.299 15.447 99.272 15.447 98.458 13.604 97.648 14.065 98.887 15.684 98.887 15.711 96.941 15.452 96.938 16.353 98.899 16.108 98.899 16.134"
        class="color0bceb2 svgShape"></polygon>
    <path fill="#0bceb2"
        d="M118.15381 153h-8.30762a2.00641 2.00641 0 0 0 0 4h8.30762a2.00641 2.00641 0 0 0 0-4zM58.15387 153H49.84613a2.00641 2.00641 0 0 0 0 4h8.30774a2.00641 2.00641 0 0 0 0-4zM104 153H64a2 2 0 0 0 0 4H79.94v2H72a2 2 0 0 0 0 4H97a2 2 0 0 0 0-4H88.06006v-2H104a2 2 0 0 0 0-4z"
        class="color0bceb2 svgShape"></path>
</svg>