<svg xmlns="http://www.w3.org/2000/svg" id="Layer_1" x="0" y="0" enable-background="new 0 0 96 96" version="1.1" viewBox="0 0 96 96" xml:space="preserve" width="256" height="256"><polygon fill="#f7c44c" points="87.5 91.5 8.5 91.5 3.5 81 92.5 81" class="colorf7c44c svgShape"></polygon><path fill="#292d34" d="M88.8,93.4H7.2L0.5,79.1h95L88.8,93.4z M9.7,89.6h76.6l3.1-6.6H6.6L9.7,89.6z" class="color292d34 svgShape"></path><path fill="#292d34" d="M90.3,82.9H5.7V81c0-23.3,19-42.3,42.3-42.3c23.3,0,42.3,19,42.3,42.3V82.9z M9.6,79.1h76.8    c-1-20.3-17.8-36.5-38.4-36.5S10.6,58.8,9.6,79.1z" class="color292d34 svgShape"></path><path fill="#2dcb73" d="M16.3,73.3C19.8,59,32.7,48.4,48,48.4S76.2,59,79.7,73.3H16.3z" class="color2dcb73 svgShape"></path><path fill="#ffffff" d="M70.5,71.6C67.1,62.1,58.1,55.7,48,55.7v-3.9c11.7,0,22.2,7.4,26.1,18.5L70.5,71.6z" class="colorfff svgShape"></path><path fill="#292d34" d="M48,42.5c-4.5,0-8.1-3.6-8.1-8.1s3.6-8.1,8.1-8.1s8.1,3.6,8.1,8.1S52.5,42.5,48,42.5z M48,30.1    c-2.3,0-4.3,1.9-4.3,4.3s1.9,4.3,4.3,4.3c2.3,0,4.2-1.9,4.2-4.3S50.3,30.1,48,30.1z" class="color292d34 svgShape"></path><rect width="3.9" height="17.9" x="46.1" y="2.6" fill="#292d34" class="color292d34 svgShape"></rect><rect width="3.9" height="17.9" x="24.9" y="14.9" fill="#292d34" class="color292d34 svgShape"></rect><g><rect width="3.9" height="17.9" x="67.3" y="14.9" fill="#292d34" class="color292d34 svgShape"></rect></g></svg>