<?xml version="1.0" encoding="utf-8"?>
<!-- Generator: Adobe Illustrator 23.0.1, SVG Export Plug-In . SVG Version: 6.00 Build 0)  -->
<svg version="1.1" id="Layer_1" xmlns="http://www.w3.org/2000/svg" xmlns:xlink="http://www.w3.org/1999/xlink" x="0px" y="0px"
	 viewBox="0 0 634.6 444" style="enable-background:new 0 0 634.6 444;" xml:space="preserve">
<style type="text/css">
	.st0{fill:#E0E0E0;}
	.st1{fill:#EBEBEB;}
	.st2{fill:#F5F5F5;}
	.st3{fill:#F79523;}
	.st4{fill:#263238;}
	.st5{fill:#455A64;}
	.st6{fill:#FAFAFA;}
	.st7{fill:#E8505B;}
	.st8{opacity:0.3;}
	.st9{fill:#FFBE9D;}
	.st10{fill:#EB996E;}
</style>
<title>mobile testing</title>
<g>
	<g>
		<g>
			<rect x="147.1" y="285.6" class="st0" width="68.8" height="130.6"/>
			<rect x="183.7" y="285.6" class="st1" width="32.3" height="130.6"/>
		</g>
		<g>
			<rect x="161.5" y="297.9" class="st2" width="6.2" height="15"/>
			<rect x="161.5" y="356.7" class="st2" width="6.2" height="15"/>
			<g>
				<ellipse class="st2" cx="165.4" cy="318.9" rx="18.3" ry="0.2"/>
			</g>
		</g>
		<g>
			<rect x="161.5" y="327.6" class="st2" width="6.2" height="15"/>
			<g>
				<ellipse class="st2" cx="165.4" cy="348.5" rx="18.3" ry="0.2"/>
			</g>
		</g>
		<rect x="190.5" y="297.9" class="st0" width="6.2" height="15"/>
		<rect x="203.9" y="297.9" class="st0" width="6.2" height="15"/>
		<rect x="190.5" y="326.4" class="st0" width="6.2" height="15"/>
		<rect x="203.9" y="326.4" class="st0" width="6.2" height="15"/>
		<rect x="190.5" y="355" class="st0" width="6.2" height="15"/>
		<rect x="203.9" y="355" class="st0" width="6.2" height="15"/>
		<rect x="142" y="282.5" class="st0" width="79.1" height="3.3"/>
		<g>
			<ellipse class="st1" cx="182.1" cy="286.1" rx="34.3" ry="0.2"/>
		</g>
	</g>
	<g>
		<g>
			<rect x="101.9" y="334.6" class="st1" width="61.6" height="81.2"/>
			<rect x="134.6" y="334.6" class="st0" width="28.9" height="81.2"/>
		</g>
		<g>
			<rect x="114.8" y="345.6" class="st2" width="5.5" height="13.5"/>
			<rect x="114.8" y="398.3" class="st2" width="5.5" height="13.5"/>
			<g>
				<ellipse class="st2" cx="118.3" cy="364.3" rx="16.4" ry="0.3"/>
			</g>
		</g>
		<g>
			<rect x="114.8" y="372.1" class="st2" width="5.5" height="13.5"/>
			<g>
				<ellipse class="st2" cx="118.3" cy="390.9" rx="16.4" ry="0.3"/>
			</g>
		</g>
		<rect x="140.8" y="345.6" class="st2" width="5.5" height="13.5"/>
		<rect x="152.8" y="345.6" class="st2" width="5.5" height="13.5"/>
		<rect x="140.8" y="371.1" class="st2" width="5.5" height="13.5"/>
		<rect x="152.8" y="371.1" class="st2" width="5.5" height="13.5"/>
		<rect x="140.8" y="396.7" class="st2" width="5.5" height="13.5"/>
		<rect x="152.8" y="396.7" class="st2" width="5.5" height="13.5"/>
		<rect x="97.3" y="331.8" class="st0" width="70.8" height="2.9"/>
		<g>
			<ellipse class="st1" cx="133.2" cy="335" rx="30.7" ry="0.3"/>
		</g>
	</g>
</g>
<g>
	<g>
		<path class="st1" d="M134.5,29.3c0,0-9.8,3-0.8,24c9,21.1,15.6,31.6,15.6,31.6s1.5,4.9-2.5,5.3c-4,0.5-12.7-1.5-14.8,3.2
			c-2.2,4.9,1.2,9.9,8.3,14.6c7.2,4.7,22.5,15.5,23.9,16.5s2.6,3.3-0.1,4c-2.7,0.8-22.5,1.5-21.6,10.9s23,19.1,25.4,20.3
			c2.4,1.1,2.9,2.2,2.6,3.5c-0.3,1.3-7,1-12.6,1.4s-12.1,1.9-11.1,7.3c1,5.4,13.7,17.4,46,22.7l15.2,1.5l9.1-12.3
			c17.9-27.5,17.6-44.9,14.3-49.3c-3.3-4.4-8.8-0.6-12.9,3.2c-4.1,3.9-8.4,9.1-9.6,8.4c-1.2-0.7-1.6-1.8-0.8-4.3s8.5-25.4,2.2-32.4
			s-20.3,7.1-22.7,8.6s-3.2-1-3-2.7s2.6-20.3,4-28.7s0-14.3-5.1-16c-4.9-1.7-9.3,6.1-12.4,8.7c-3.1,2.7-5.6-1.8-5.6-1.8
			s-3.4-12-12.8-32.8c-9.4-20.9-18.4-15.5-18.4-15.5"/>
	</g>
	<g>
		<g>
			<path class="st0" d="M208.5,199.9c-6.9-15.4-18.6-42.9-28.8-66.5s-19.4-44.9-26.2-60.3c-3.4-7.7-6.1-13.9-8.1-18.2
				c-0.9-2.1-1.7-3.8-2.2-5c-0.2-0.6-0.4-1-0.6-1.3c-0.1-0.3-0.2-0.4-0.2-0.4s0.1,0.1,0.2,0.4c0.1,0.3,0.3,0.7,0.6,1.3
				c0.5,1.1,1.3,2.8,2.3,4.9c2,4.3,4.8,10.5,8.2,18.2c6.9,15.4,16.2,36.7,26.4,60.3s21.9,51.1,28.7,66.5"/>
		</g>
	</g>
	<g>
		<g>
			<path class="st0" d="M144,96.7c0,0,0.4,0.1,1,0.4c0.7,0.3,1.6,0.7,2.8,1.2c2.3,1,5.5,2.5,8.9,4.2s6.5,3.2,8.8,4.4
				c1.1,0.5,2,1,2.7,1.3c0.6,0.3,1,0.5,1,0.5s-0.4-0.1-1-0.4c-0.7-0.3-1.6-0.7-2.8-1.2c-2.3-1.1-5.4-2.6-8.9-4.3
				c-3.4-1.7-6.5-3.2-8.9-4.4c-1.1-0.5-2-1-2.7-1.3C144.3,97,144,96.8,144,96.7z"/>
		</g>
	</g>
	<g>
		<g>
			
				<ellipse transform="matrix(0.4022 -0.9155 0.9155 0.4022 20.3928 217.492)" class="st0" cx="176.7" cy="93.1" rx="16.1" ry="0.2"/>
		</g>
	</g>
	<g>
		<g>
			<path class="st0" d="M184.3,144.8c0,0,0.2-0.3,0.7-0.9c0.5-0.6,1.2-1.4,2-2.3c1.7-2,3.9-4.7,6.3-7.8c2.4-3.1,4.5-6,6-8.1
				c0.7-1,1.3-1.8,1.8-2.5c0.4-0.6,0.7-0.9,0.7-0.9s-0.2,0.4-0.5,1c-0.4,0.6-0.9,1.5-1.6,2.6c-1.4,2.2-3.5,5.1-5.9,8.2
				s-4.7,5.8-6.4,7.8c-0.9,1-1.6,1.7-2.1,2.2C184.7,144.6,184.4,144.8,184.3,144.8z"/>
		</g>
	</g>
	<g>
		<g>
			<path class="st0" d="M158.3,139.9c0,0,0.4,0,1,0.1c0.8,0.1,1.7,0.2,2.8,0.4c2.4,0.4,5.6,0.9,9.2,1.5c3.6,0.6,6.8,1.2,9.2,1.7
				c1.1,0.2,2,0.4,2.8,0.6c0.7,0.1,1,0.2,1,0.3c0,0-0.4,0-1-0.1c-0.8-0.1-1.7-0.2-2.8-0.4c-2.4-0.4-5.6-0.9-9.2-1.5
				c-3.6-0.6-6.8-1.2-9.2-1.7c-1.1-0.2-2-0.4-2.8-0.6C158.7,140.1,158.3,140,158.3,139.9z"/>
		</g>
	</g>
	<g>
		<g>
			<path class="st0" d="M166.6,174.1c0,0,0.5,0,1.3,0.1c0.9,0.1,2.1,0.3,3.6,0.5c3,0.5,7.2,1.1,11.8,1.9c4.6,0.8,8.8,1.5,11.8,2
				c1.4,0.3,2.6,0.5,3.6,0.7c0.8,0.2,1.3,0.3,1.3,0.3s-0.5,0-1.3-0.1c-0.9-0.1-2.1-0.3-3.6-0.5c-3-0.5-7.2-1.1-11.8-1.9
				c-4.6-0.8-8.8-1.5-11.8-2c-1.4-0.3-2.6-0.5-3.6-0.7C167,174.2,166.6,174.1,166.6,174.1z"/>
		</g>
	</g>
	<g>
		<g>
			<path class="st0" d="M199.2,179.2c0,0,0.3-0.4,0.8-1.2c0.6-0.8,1.4-1.8,2.4-3.1c2-2.6,4.8-6.2,7.7-10.2s5.5-7.8,7.3-10.5
				c0.9-1.3,1.6-2.4,2.2-3.2c0.5-0.8,0.8-1.2,0.8-1.1c0,0-0.2,0.5-0.7,1.2c-0.5,0.8-1.2,1.9-2.1,3.3c-1.8,2.8-4.3,6.5-7.2,10.6
				c-2.9,4-5.7,7.6-7.8,10.1c-1,1.3-1.9,2.3-2.5,3C199.5,178.9,199.2,179.2,199.2,179.2z"/>
		</g>
	</g>
</g>
<g>
	<g>
		<g>
			<g>
				<path class="st2" d="M426.8,238.8c-20.3-14.2-24.9-40.4-24.1-64c0.1-3.9-0.3-8.1,1.6-11.6s6.3-5.8,9.8-4.2
					c2.9,1.4,4.2,4.8,5.8,7.6c2.2,3.7,5.4,6.8,9.2,8.8c2.5,1.3,5.6,2.1,8.1,0.7c3.4-1.9,3.8-6.6,3.8-10.5c0-7.3-0.1-14.6-0.1-21.9
					c0-3.9,0-7.9,1.2-11.6c1.2-3.7,3.9-7.2,7.6-8.2s8.3,1.1,9.1,4.9c0.3,1.6,0,3.3,0.1,4.9c0.1,1.6,0.9,3.4,2.4,3.9
					c1.6,0.5,3.1-0.7,4.3-1.8c4-4,6.8-9.1,9.4-14.1c2.6-5.1,5.1-10.3,8.7-14.6c3.7-4.3,8.7-7.7,14.4-8.1c5.6-0.3,11.6,3.1,13,8.7
					c1.4,5.5-1.8,11.1-5.3,15.6c-5.2,6.6-11.4,12.5-18.2,17.4c-1.2,0.9-2.6,1.8-3,3.3c-0.9,2.6,1.6,5.2,4.2,6.1c2.9,1,6.1,0.7,9.1,1
					c3.1,0.4,6.4,1.7,7.5,4.6c1.6,4-1.7,8.2-5,11c-6.6,5.5-14.1,9.9-22.2,12.8c-2.9,1.1-5.9,2-8.2,4c-2.3,2-3.7,5.5-2.3,8.3
					c1.4,2.8,5,3.6,8,3.1c3-0.6,5.7-2.2,8.6-3.3c5.4-2,12.3-1.7,15.8,3c2.3,3.1,2.5,7.3,1.3,11c-1.1,3.6-3.5,6.8-5.9,9.7
					c-8.6,10.1-19.7,18.3-32.2,22.6C450.8,242.1,439.2,243.3,426.8,238.8"/>
			</g>
		</g>
	</g>
	<g>
		<g>
			<g>
				<g>
					<path class="st0" d="M426.5,256.3c0.9-9.4,2.9-20.4,6.4-32.3c3.5-11.9,8.4-24.7,13.9-37.8c1.4-3.3,2.8-6.5,4.2-9.7
						c1.4-3.2,2.7-6.4,4.3-9.4c3-6,6.4-11.6,9.7-16.8c3.4-5.2,6.7-10,9.9-14.5c3.2-4.5,6.3-8.6,9.2-12.2c5.9-7.3,11.3-12.6,15.2-16
						c1.9-1.7,3.5-3.1,4.5-3.9c0.5-0.4,0.9-0.7,1.2-1c0.3-0.2,0.4-0.3,0.4-0.3s-0.1,0.1-0.4,0.4s-0.7,0.6-1.2,1
						c-1,0.9-2.5,2.2-4.4,4c-3.8,3.5-9.2,8.9-15,16.2c-2.9,3.6-5.9,7.7-9.1,12.2s-6.5,9.3-9.9,14.5c-3.3,5.2-6.7,10.7-9.7,16.8
						c-1.5,3-2.9,6.1-4.2,9.3c-1.4,3.2-2.8,6.4-4.2,9.7c-5.6,13.1-10.5,25.9-14,37.7c-3.5,11.9-5.6,22.9-6.5,32.2"/>
				</g>
			</g>
		</g>
	</g>
	<g>
		<g>
			<g>
				<g>
					<path class="st0" d="M455.5,167c0,0-0.2-0.6-0.4-1.7c-0.2-1.1-0.5-2.7-0.7-4.6c-0.6-3.9-1.1-9.3-1.8-15.3
						c-0.6-6-1.3-11.4-1.9-15.3c-0.3-1.9-0.6-3.5-0.8-4.6c-0.2-1.1-0.3-1.7-0.2-1.7c0,0,0.2,0.6,0.5,1.6c0.3,1.1,0.6,2.6,1,4.6
						c0.7,3.9,1.5,9.3,2.1,15.3c0.6,5.9,1.1,11.2,1.5,15.3c0.2,1.8,0.4,3.4,0.5,4.6C455.5,166.4,455.5,167,455.5,167z"/>
				</g>
			</g>
		</g>
	</g>
	<g>
		<g>
			<g>
				<g>
					<path class="st0" d="M505.9,157.6c0,0.1-0.7,0.1-2,0.2c-1.3,0.1-3.2,0.3-5.5,0.5c-4.6,0.5-11,1.4-17.9,2.7
						c-7,1.3-13.2,2.8-17.7,4c-2.3,0.6-4.1,1.1-5.3,1.4c-1.3,0.4-2,0.5-2,0.5s0.7-0.3,1.9-0.8c1.2-0.4,3-1,5.3-1.7
						c4.5-1.3,10.7-2.9,17.7-4.2s13.4-2.2,18-2.5c2.3-0.2,4.2-0.3,5.5-0.3C505.1,157.5,505.9,157.6,505.9,157.6z"/>
				</g>
			</g>
		</g>
	</g>
	<g>
		<g>
			<g>
				<g>
					<path class="st0" d="M433.5,223c0,0-0.1-0.2-0.3-0.6c-0.2-0.5-0.5-1.1-0.9-1.8c-0.7-1.6-1.8-3.9-3-6.8
						c-2.4-5.8-5.5-13.9-8.8-22.8c-3.3-9-6.3-17.1-8.6-22.9c-1.1-2.8-2.1-5.2-2.8-6.9c-0.3-0.8-0.5-1.4-0.7-1.9
						c-0.2-0.4-0.2-0.7-0.2-0.7s0.1,0.2,0.3,0.6c0.2,0.5,0.5,1.1,0.9,1.8c0.7,1.6,1.8,3.9,3,6.8c2.4,5.8,5.5,13.9,8.8,22.8
						c3.3,9,6.3,17.1,8.6,22.9c1.1,2.8,2.1,5.2,2.8,6.9c0.3,0.8,0.5,1.4,0.7,1.9S433.5,223,433.5,223z"/>
				</g>
			</g>
		</g>
	</g>
	<g>
		<g>
			<g>
				<g>
					<path class="st0" d="M500.5,201.4c0,0-0.2,0.1-0.7,0.3s-1.2,0.4-1.9,0.7c-1.8,0.6-4.2,1.4-7.2,2.3c-6.1,2-14.4,4.8-23.6,7.9
						c-9.2,3.1-17.6,5.9-23.7,7.7c-3,0.9-5.5,1.6-7.2,2.1c-0.8,0.2-1.5,0.4-2,0.5s-0.7,0.2-0.7,0.1c0,0,0.2-0.1,0.7-0.3
						s1.2-0.4,1.9-0.7c1.8-0.6,4.2-1.4,7.2-2.3c6.1-2,14.4-4.8,23.6-7.9c9.2-3.1,17.6-5.9,23.7-7.7c3-0.9,5.5-1.6,7.2-2.1
						c0.8-0.2,1.4-0.4,2-0.5C500.2,201.5,500.5,201.4,500.5,201.4z"/>
				</g>
			</g>
		</g>
	</g>
</g>
<g>
	<g>
		<g>
			<path class="st3" d="M203.3,262.4c15.9-16,15.7-40.4,11.1-61.5c-0.8-3.5-1.1-7.3-3.3-10.1c-2.3-2.8-6.6-4.2-9.5-2.1
				c-2.4,1.7-3,5-4,7.8c-1.3,3.7-3.8,7-6.9,9.5c-2,1.6-4.7,2.8-7.2,2c-3.4-1.1-4.5-5.3-5.1-8.8c-1.2-6.6-2.3-13.2-3.5-19.7
				c-0.6-3.5-1.3-7.1-3-10.3c-1.7-3.1-4.7-5.8-8.2-6.1s-7.3,2.4-7.4,5.9c0,1.5,0.5,2.9,0.7,4.4s-0.2,3.2-1.5,3.9s-2.9-0.1-4.2-0.9
				c-4.3-2.9-7.6-7-10.7-11.2c-3.1-4.1-6.2-8.4-10.2-11.7s-9.1-5.5-14.2-4.9s-9.9,4.7-10.3,9.9s3.4,9.7,7.3,13.2
				c5.8,5.1,12.3,9.4,19.2,12.6c1.3,0.6,2.6,1.2,3.3,2.4c1.2,2.2-0.6,5-2.8,6.1c-2.5,1.4-5.4,1.6-8.1,2.4c-2.7,0.8-5.4,2.6-6,5.4
				c-0.8,3.9,2.9,7.1,6.3,9c6.8,3.9,14.3,6.6,22,7.9c2.8,0.5,5.6,0.8,8.1,2.3c2.4,1.4,4.3,4.4,3.5,7.1c-0.8,2.7-3.9,4.1-6.7,4.1
				s-5.5-1-8.3-1.5c-5.2-0.9-11.4,0.5-13.7,5.3c-1.5,3.1-1,7,0.6,10.1s4.2,5.5,6.9,7.7c9.4,7.7,20.7,13.2,32.7,15.1
				C182.3,269.3,192.9,268.5,203.3,262.4"/>
		</g>
	</g>
	<g>
		<g>
			<g>
				<path class="st4" d="M206.5,278.1c-2.3-8.3-6-17.9-11.1-28c-5.1-10.1-11.6-20.8-18.7-31.7c-1.8-2.7-3.6-5.4-5.3-8.1
					c-1.8-2.6-3.5-5.3-5.4-7.7c-3.7-4.9-7.6-9.4-11.5-13.5s-7.7-7.9-11.3-11.4s-7-6.7-10.3-9.5c-6.5-5.6-12.2-9.4-16.3-11.9
					c-2-1.3-3.6-2.2-4.7-2.8c-0.5-0.3-0.9-0.5-1.2-0.7c-0.3-0.2-0.4-0.2-0.4-0.2s0.1,0.1,0.4,0.3s0.7,0.4,1.2,0.7
					c1.1,0.6,2.7,1.6,4.7,2.9c4,2.6,9.7,6.5,16.1,12.1c3.2,2.8,6.6,6,10.2,9.5c3.6,3.5,7.4,7.3,11.2,11.4c3.8,4.1,7.8,8.6,11.4,13.5
					c1.8,2.4,3.6,5,5.3,7.7c1.8,2.7,3.5,5.3,5.3,8.1c7.2,10.9,13.7,21.5,18.7,31.6c5.1,10.1,8.8,19.6,11.1,27.9"/>
			</g>
		</g>
	</g>
	<g>
		<g>
			<g>
				<path class="st4" d="M165.8,202.5c0,0,0.1-0.6,0.1-1.6s0-2.5-0.1-4.3c-0.1-3.6-0.5-8.6-0.9-14c-0.4-5.5-0.7-10.4-0.8-14
					c0-1.8-0.1-3.3-0.1-4.3s0-1.6-0.1-1.6c0,0-0.1,0.6-0.2,1.6c-0.1,1-0.1,2.5-0.1,4.3c0,3.6,0.2,8.6,0.6,14.1
					c0.4,5.4,0.8,10.3,1.1,14c0.1,1.7,0.2,3.1,0.3,4.3C165.7,202,165.7,202.5,165.8,202.5z"/>
			</g>
		</g>
	</g>
	<g>
		<g>
			<g>
				<path class="st4" d="M118.9,202.3c0,0,0.7,0,1.8-0.1c1.2-0.1,2.9-0.3,5-0.4c4.2-0.3,10.1-0.5,16.6-0.5
					c6.5,0.1,12.3,0.3,16.6,0.7c2.1,0.2,3.8,0.3,5,0.4c1.2,0.1,1.8,0.2,1.8,0.1c0,0-0.6-0.2-1.8-0.4s-2.9-0.4-5-0.6
					c-4.2-0.5-10.1-0.8-16.6-0.9c-6.5,0-12.4,0.3-16.6,0.7c-2.1,0.2-3.8,0.4-5,0.6C119.6,202.2,118.9,202.3,118.9,202.3z"/>
			</g>
		</g>
	</g>
	<g>
		<g>
			<g>
				<path class="st4" d="M194.7,249.3c0,0,0.1-0.2,0.2-0.6c0.1-0.5,0.3-1.1,0.5-1.8c0.4-1.5,0.9-3.8,1.6-6.6
					c1.2-5.6,2.7-13.4,4.2-22s2.9-16.4,4-22c0.6-2.7,1-5,1.3-6.6c0.1-0.7,0.3-1.3,0.4-1.8c0.1-0.4,0.1-0.6,0.1-0.6s-0.1,0.2-0.2,0.6
					c-0.1,0.5-0.3,1.1-0.5,1.8c-0.4,1.5-0.9,3.8-1.6,6.6c-1.2,5.6-2.7,13.4-4.2,22s-2.9,16.4-4,22c-0.6,2.7-1,5-1.3,6.6
					c-0.1,0.7-0.3,1.3-0.4,1.8C194.7,249.1,194.7,249.3,194.7,249.3z"/>
			</g>
		</g>
	</g>
	<g>
		<g>
			<g>
				<path class="st4" d="M130.9,240.9c0,0,0.2,0.1,0.6,0.1c0.5,0.1,1.1,0.2,1.9,0.3c1.7,0.2,4,0.5,6.8,0.9
					c5.8,0.8,13.7,1.9,22.5,3.2s16.8,2.4,22.5,3c2.9,0.3,5.2,0.6,6.9,0.7c0.7,0.1,1.4,0.1,1.9,0.1c0.4,0,0.7,0,0.7,0
					s-0.2-0.1-0.6-0.1c-0.5-0.1-1.1-0.2-1.9-0.3c-1.7-0.2-4-0.5-6.8-0.9c-5.8-0.8-13.7-1.9-22.5-3.2s-16.8-2.4-22.5-3
					c-2.9-0.3-5.2-0.6-6.9-0.7c-0.7-0.1-1.4-0.1-1.9-0.1C131.2,240.9,130.9,240.9,130.9,240.9z"/>
			</g>
		</g>
	</g>
</g>
<g>
	<path class="st5" d="M385.3,81.1c3.1-2.4,4.5-6.6,3.8-10.5c-0.6-3.9-3.1-7.3-6.4-9.5c-1.5-1-3.3-1.8-5.1-1.3
		c-1.6,0.5-2.8,2.1-3.1,3.7c-0.3,1.7,0,3.4,0.6,5C377.1,73.9,379.9,78.9,385.3,81.1"/>
	<path class="st5" d="M390.4,90.4c6.1-5.6,15-7.9,23-6c2,0.5,4.3,1.6,4.7,3.6c0.3,2.1-1.5,3.8-3.3,4.9c-7.6,4.4-17.8,3.6-24.6-2"/>
	<path class="st5" d="M419.7,47.1c-3.4-0.9-7.1-0.1-10.1,1.7s-5.3,4.6-7.2,7.5c-3.6,5.7-4.9,13.4-5.1,20.2c7.5-0.3,13.9-6.2,17-9.4
		C419.3,62.1,425,50,419.7,47.1"/>
	<g>
		<path class="st4" d="M379,100.7c0.4-0.8,1.2-1.4,1.9-2.8c1.4-2.9,3.3-7.1,4.2-12.1c0.9-5,0.3-9.7-0.9-12.7
			c-0.6-1.5-1.3-2.7-1.8-3.5c-0.5-0.7-0.9-1.1-0.9-1.1c-0.1,0.1,1.2,1.7,2.2,4.7c1.1,3,1.6,7.6,0.7,12.4s-2.7,9-4,12"/>
	</g>
	<g>
		<path class="st4" d="M378.9,100.8c1-1.3,2.3-3,3.9-5c3.3-4.3,7.9-10.2,13-16.6s9.8-12.2,13.3-16.4c1.6-2,3-3.7,4-4.9
			c0.9-1.2,1.5-1.8,1.4-1.9c0,0-0.6,0.6-1.6,1.7c-1,1.1-2.5,2.7-4.2,4.8c-3.5,4.1-8.3,9.8-13.5,16.2c-5.1,6.4-9.6,12.4-12.8,16.7
			c-1.6,2.2-2.9,4-3.7,5.2"/>
	</g>
	<g>
		<path class="st4" d="M408.7,88.9c0-0.1-0.5-0.2-1.3-0.4c-0.4-0.1-1-0.2-1.6-0.3c-0.6-0.1-1.3-0.2-2.1-0.2
			c-1.6-0.1-3.5-0.1-5.5,0.2c-2.1,0.3-4.3,0.8-6.6,1.7c-2.2,0.9-4.3,2-6,3.2s-3.1,2.4-4.2,3.6c-0.6,0.5-1,1.1-1.4,1.6
			s-0.7,0.9-1,1.3c-0.5,0.7-0.4,1.1-0.4,1.1c0.1,0.1,0.9-1.5,3.1-3.6c1.1-1.1,2.5-2.2,4.2-3.4c1.7-1.1,3.7-2.2,5.9-3
			c2.2-0.8,4.4-1.4,6.4-1.7c2-0.3,3.9-0.4,5.4-0.4C406.8,88.6,408.7,89,408.7,88.9z"/>
	</g>
</g>
<g>
	<g>
		<g>
			<g>
				<path class="st4" d="M350.4,417.5l-133.9-0.6c-16.1-0.1-29.1-13.5-29-30.1L189,41.9c0.1-16.6,13.2-29.9,29.3-29.8l133.9,0.6
					c16.1,0.1,29.1,13.5,29,30.1l-1.5,344.9C379.6,404.2,366.5,417.6,350.4,417.5z"/>
			</g>
		</g>
	</g>
	<g>
		<g>
			<g>
				<g>
					<circle class="st0" cx="367.6" cy="327.1" r="2.9"/>
				</g>
				<g>
					<ellipse class="st0" cx="367.6" cy="330.4" rx="0.3" ry="3.2"/>
				</g>
			</g>
			<g>
				<g>
					<path class="st6" d="M354.8,24.1L328.1,24c-3.6,0-6.5,3-6.5,6.8v4.9c0,3.8-2.9,6.8-6.5,6.8l-52.2-0.2c-3.6,0-6.5-3.1-6.5-6.8
						v-4.9c0-3.8-2.9-6.8-6.5-6.8h-9.4L217,23.5c-11.6-0.1-21.1,9.3-21.2,21l-1.4,337.9c0,11.6,9.3,21.1,21,21.2l137.8,0.6
						c11.6,0.1,21.1-9.3,21.2-21l1.4-337.9C375.8,33.6,366.5,24.2,354.8,24.1z"/>
				</g>
				<path class="st1" d="M203.6,290.7c1.2-0.9,58.8-26.3,58.8-26.3l-67.3-33.6l-0.2,54.1L203.6,290.7z"/>
				<polygon class="st7" points="207.1,229.8 256.2,204.9 203.4,175.6 195.3,177.7 195.1,225 				"/>
				<polygon class="st3" points="207.1,229.8 256.2,204.9 203.4,175.6 195.3,177.7 195.1,225 				"/>
				<polygon class="st1" points="197.1,172.2 348.4,101.5 198.5,52.5 				"/>
				<polygon class="st1" points="195.3,356.4 264.5,320.8 367.5,381.4 342.9,402.9 255,402.9 195.3,366.4 				"/>
				<polygon class="st1" points="278.1,317 363.6,367.7 373.2,366.6 373.2,317.9 326.3,293.1 				"/>
				<polygon class="st1" points="292.2,268.6 372.8,314 372.8,254.6 343.6,242.1 				"/>
				<polygon class="st1" points="206,293.6 253.3,319.5 310.7,289.8 265.1,266.6 				"/>
				<polygon class="st1" points="277,204.6 344.1,237.8 375.1,221.9 375.3,199.6 330.1,177.7 				"/>
				<polygon class="st1" points="208.5,233.5 275.5,266.7 306.6,250.9 306.8,228.6 261.5,206.6 				"/>
				<polygon class="st1" points="217.8,173.8 272.4,201.2 323.3,173.8 270.6,149.8 				"/>
				<g>
					<path class="st3" d="M323.3,348.6c0,0-0.3-0.1-1-0.5c-0.6-0.4-1.6-0.9-2.8-1.6c-2.5-1.4-6.1-3.5-10.8-6.3
						c-9.4-5.5-23.1-13.5-40.2-23.5l-0.8-0.5l0.9-0.4c14.9-7.6,32.8-16.7,52.7-26.8v1.2c-12.2-6.5-25.4-13.6-39.3-21l-1.2-0.7
						l1.3-0.7c17.1-9,35.5-18.7,54.6-28.7v1.4c-2.1-1-4.3-2.2-6.5-3.3c-45.8-23.2-88.2-44.7-122.4-62.1l-1.2-0.6l1.2-0.6
						c27.1-12.9,49.4-23.6,65-31c7.8-3.7,13.9-6.5,18-8.5c2.1-1,3.7-1.7,4.7-2.2c0.5-0.2,0.9-0.4,1.2-0.5c0.3-0.1,0.4-0.2,0.4-0.2
						s-0.1,0.1-0.4,0.2c-0.3,0.1-0.7,0.4-1.2,0.6c-1.1,0.5-2.6,1.3-4.7,2.4c-4.1,2-10.2,5-17.9,8.8c-15.5,7.5-37.7,18.3-64.7,31.5
						v-1.1c34.3,17.3,76.7,38.7,122.5,61.8c2.2,1.1,4.5,2.3,6.5,3.3l1.4,0.7l-1.3,0.7c-19.1,10-37.6,19.7-54.7,28.6v-1.3
						c13.9,7.4,27.1,14.6,39.3,21.1l1.2,0.6l-1.2,0.6c-19.9,10-37.8,19-52.8,26.5v-0.9c17,10.2,30.6,18.3,39.9,24
						c4.7,2.8,8.3,5,10.7,6.5c1.2,0.8,2.1,1.3,2.8,1.7C323,348.4,323.4,348.6,323.3,348.6z"/>
				</g>
				<path class="st3" d="M311.6,99.6c0-10-10.5-16.3-21.2-11.3c-2.4,1.1-4.4,3-5.6,5.4c-2.7,5.2-1.5,11.2,0.9,16.1l8.3,21.1
					c1.2,3,5.5,3,6.7,0l8.2-21.2C311.7,103.2,311.6,99.6,311.6,99.6z M301.5,108.3c-7.2,4.2-14.5-3.5-10.5-11.2
					c0.5-1,1.3-1.9,2.3-2.4c7.2-4.2,14.5,3.5,10.5,11.2C303.3,106.9,302.5,107.8,301.5,108.3z"/>
				<g>
					<polygon class="st2" points="295.6,208.8 295.4,197 326.1,211.9 326.1,224.1 					"/>
					<polygon class="st0" points="326.1,211.9 364.2,192.9 364.2,206.1 326.1,224.1 					"/>
					<polygon class="st2" points="295.4,197 332.8,178.3 364.2,192.9 326.1,211.9 					"/>
					<polygon class="st6" points="299.4,202.1 299.4,207.8 302.4,209.2 302.4,203.7 					"/>
					<polygon class="st6" points="304.2,204.2 304.2,209.9 307.2,211.3 307.2,205.8 					"/>
				</g>
				<g>
					<polygon class="st0" points="199,134.5 199,119.1 235.4,136.7 235.4,151.2 					"/>
					<polygon class="st2" points="235.4,136.7 280.5,114.3 280.5,129.9 235.4,151.2 					"/>
					<polygon class="st6" points="199,119.1 243.3,97 280.5,114.3 235.4,136.7 					"/>
					<polygon class="st6" points="203.8,125.1 203.8,131.9 207.3,133.5 207.3,127 					"/>
					<polygon class="st6" points="209.4,127.7 209.4,134.4 213,136 213,129.6 					"/>
				</g>
				<g>
					<path class="st0" d="M308.6,262.6c0,0.7,0,12.1,0,12.1l13,6.4v-12.5L308.6,262.6z"/>
					<polygon class="st0" points="338.1,260.7 321.5,268.6 321.5,281.1 338.1,271.8 					"/>
					<polygon class="st2" points="308.6,262.6 325,254.6 338.1,260.7 321.5,268.6 					"/>
					<polygon class="st6" points="313.2,271.3 313.2,277 316.2,278.3 316.2,272.9 					"/>
				</g>
				<g>
					<path class="st0" d="M203.9,256.3c0,0.7,0,12.1,0,12.1l13,6.4v-12.5L203.9,256.3z"/>
					<polygon class="st0" points="233.4,254.4 216.9,262.3 216.9,274.8 233.4,265.6 					"/>
					<polygon class="st2" points="203.9,256.3 220.3,248.4 233.4,254.4 216.9,262.3 					"/>
					<polygon class="st6" points="208.5,265 208.5,270.7 211.5,272.1 211.5,266.6 					"/>
				</g>
				<g>
					<path class="st2" d="M257.6,176.6c0,0.7,0,12.1,0,12.1l13,6.4v-12.5L257.6,176.6z"/>
					<polygon class="st0" points="287.2,174.7 270.6,182.6 270.6,195.1 287.2,185.8 					"/>
					<polygon class="st2" points="257.6,176.6 274.1,168.7 287.2,174.7 270.6,182.6 					"/>
					<polygon class="st0" points="262.3,185.3 262.3,191 265.3,192.3 265.3,186.9 					"/>
				</g>
				<g>
					<path class="st0" d="M243.2,280.1c0,0.7,0,12.1,0,12.1l13,6.4v-12.5L243.2,280.1z"/>
					<polygon class="st1" points="272.8,278.2 256.2,286.1 256.2,298.6 272.8,289.4 					"/>
					<polygon class="st2" points="243.2,280.1 259.7,272.2 272.8,278.2 256.2,286.1 					"/>
					<polygon class="st6" points="247.9,288.8 247.9,294.5 250.9,295.9 250.9,290.4 					"/>
				</g>
				<g>
					<path class="st2" d="M296.7,309.3c0,0.9,0,15.2,0,15.2l27.3,16.1V325L296.7,309.3z"/>
					<polygon class="st0" points="344.8,313.7 324,324.9 324,340.5 344.8,329 					"/>
					<polygon class="st6" points="296.7,309.3 317.3,299.4 344.8,313.7 324,324.9 					"/>
					<polygon class="st6" points="307,323.3 307,330.5 310.8,332.8 310.8,325.7 					"/>
				</g>
				<g>
					<path class="st0" d="M231.1,340.5c0,0.9,0,15.2,0,15.2l27.3,16.1v-15.6L231.1,340.5z"/>
					<polygon class="st6" points="290.9,338.4 258.4,356.1 258.4,371.7 291,353.6 					"/>
					<polygon class="st2" points="231.1,340.5 265.5,323.8 291,338.5 258.4,356.1 					"/>
					<polygon class="st6" points="241.4,354.5 241.4,361.7 245.1,363.9 245.1,356.9 					"/>
				</g>
				<g>
					<polygon class="st2" points="334.4,283.9 334.4,344.4 351.4,353.2 351.4,291.9 					"/>
					<polygon class="st6" points="347,278 334.4,283.9 351.4,291.9 362.9,285.4 					"/>
					<polygon class="st0" points="351.4,291.9 351.4,353.2 361.8,347.6 362.9,285.4 					"/>
				</g>
				<g>
					<polygon class="st2" points="262.4,234.8 262.4,295.4 279.4,304.2 279.4,242.9 					"/>
					<polygon class="st6" points="275,229 262.4,234.8 279.4,242.9 290.9,236.4 					"/>
					<polygon class="st0" points="279.4,242.9 279.4,304.2 289.8,299 290.9,236.4 					"/>
				</g>
				<g>
					<path class="st0" d="M270.1,349.9c0,0.9,0,15.2,0,15.2l27.3,16.1v-15.6L270.1,349.9z"/>
					<polygon class="st6" points="318.2,354.3 297.4,365.5 297.4,381.1 318.2,369.6 					"/>
					<polygon class="st2" points="270.1,349.9 290.9,338.4 318.2,354.3 297.4,365.5 					"/>
					<polygon class="st6" points="280.4,363.9 280.4,371.1 284.2,373.4 284.2,366.3 					"/>
				</g>
				<path class="st0" d="M275.5,147.2"/>
				<polygon class="st1" points="330.8,169.3 281.1,146.9 350.4,111.6 373.1,145.5 				"/>
				<polygon class="st3" points="375.1,189.9 375.4,151.1 336.9,173 				"/>
				<g>
					<g>
						<circle class="st0" cx="342.9" cy="228.7" r="2.9"/>
					</g>
					<g>
						<ellipse class="st0" cx="342.9" cy="232" rx="0.3" ry="3.2"/>
					</g>
				</g>
				<g>
					<g>
						<circle class="st0" cx="262.4" cy="221.5" r="2.9"/>
					</g>
					<g>
						<ellipse class="st0" cx="262.4" cy="224.7" rx="0.3" ry="3.2"/>
					</g>
				</g>
				<g>
					<g>
						<circle class="st0" cx="223" cy="262.7" r="2.9"/>
					</g>
					<g>
						<ellipse class="st0" cx="223" cy="265.9" rx="0.3" ry="3.2"/>
					</g>
				</g>
				<g>
					<g>
						<circle class="st0" cx="225.9" cy="230.9" r="2.9"/>
					</g>
					<g>
						<ellipse class="st0" cx="225.9" cy="234.1" rx="0.3" ry="3.2"/>
					</g>
				</g>
				<g>
					<g>
						<circle class="st0" cx="298.7" cy="228" r="2.9"/>
					</g>
					<g>
						<ellipse class="st0" cx="298.7" cy="231.2" rx="0.3" ry="3.2"/>
					</g>
				</g>
				<g>
					<g>
						<circle class="st0" cx="345.3" cy="250.1" r="2.9"/>
					</g>
					<g>
						<ellipse class="st0" cx="345.3" cy="253.3" rx="0.3" ry="3.2"/>
					</g>
				</g>
				<g>
					<g>
						<circle class="st0" cx="347.2" cy="267.4" r="2.9"/>
					</g>
					<g>
						<ellipse class="st0" cx="347.2" cy="270.7" rx="0.3" ry="3.2"/>
					</g>
				</g>
				<g>
					<g>
						<circle class="st0" cx="264.5" cy="303.4" r="2.9"/>
					</g>
					<g>
						<ellipse class="st0" cx="264.5" cy="306.7" rx="0.3" ry="3.2"/>
					</g>
				</g>
				<g>
					<g>
						<circle class="st0" cx="361.4" cy="354.9" r="2.9"/>
					</g>
					<g>
						<ellipse class="st0" cx="361.4" cy="358.1" rx="0.3" ry="3.2"/>
					</g>
				</g>
				<g>
					<g>
						<circle class="st0" cx="305" cy="387.1" r="2.9"/>
					</g>
					<g>
						<ellipse class="st0" cx="305" cy="390.3" rx="0.3" ry="3.2"/>
					</g>
				</g>
				<g>
					<g>
						<circle class="st0" cx="282.3" cy="378.2" r="2.9"/>
					</g>
					<g>
						<ellipse class="st0" cx="282.3" cy="381.4" rx="0.3" ry="3.2"/>
					</g>
				</g>
				<g>
					<g>
						<circle class="st0" cx="334.4" cy="371.7" r="2.9"/>
					</g>
					<g>
						<ellipse class="st0" cx="334.4" cy="375" rx="0.3" ry="3.2"/>
					</g>
				</g>
				<g>
					<g>
						<circle class="st0" cx="290" cy="314.9" r="2.9"/>
					</g>
					<g>
						<ellipse class="st0" cx="290" cy="318.2" rx="0.3" ry="3.2"/>
					</g>
				</g>
				<g>
					<g>
						<circle class="st0" cx="297.4" cy="286.1" r="2.9"/>
					</g>
					<g>
						<ellipse class="st0" cx="297.4" cy="289.4" rx="0.3" ry="3.2"/>
					</g>
				</g>
				<g>
					<g>
						<circle class="st0" cx="225.9" cy="289.4" r="2.9"/>
					</g>
					<g>
						<ellipse class="st0" cx="225.9" cy="292.6" rx="0.3" ry="3.2"/>
					</g>
				</g>
				<g>
					<g>
						<circle class="st0" cx="362.1" cy="262.7" r="2.9"/>
					</g>
					<g>
						<ellipse class="st0" cx="362.1" cy="265.9" rx="0.3" ry="3.2"/>
					</g>
				</g>
				<g>
					<g>
						<circle class="st0" cx="354.2" cy="218.5" r="2.9"/>
					</g>
					<g>
						<ellipse class="st0" cx="354.2" cy="221.8" rx="0.3" ry="3.2"/>
					</g>
				</g>
				<g>
					<g>
						<circle class="st0" cx="294.5" cy="179.5" r="2.9"/>
					</g>
					<g>
						<ellipse class="st0" cx="294.5" cy="182.8" rx="0.3" ry="3.2"/>
					</g>
				</g>
				<g>
					<g>
						<circle class="st0" cx="238.1" cy="235.2" r="2.9"/>
					</g>
					<g>
						<ellipse class="st0" cx="238.1" cy="238.4" rx="0.3" ry="3.2"/>
					</g>
				</g>
				<g>
					<g>
						<circle class="st0" cx="272.8" cy="158.5" r="2.9"/>
					</g>
					<g>
						<ellipse class="st0" cx="272.8" cy="161.7" rx="0.3" ry="3.2"/>
					</g>
				</g>
				<g>
					<g>
						<circle class="st0" cx="332.9" cy="152" r="2.9"/>
					</g>
					<g>
						<ellipse class="st0" cx="332.9" cy="155.3" rx="0.3" ry="3.2"/>
					</g>
				</g>
				<g>
					<g>
						<circle class="st0" cx="349.5" cy="149.3" r="2.9"/>
					</g>
					<g>
						<ellipse class="st0" cx="349.5" cy="152.5" rx="0.3" ry="3.2"/>
					</g>
				</g>
				<g>
					<g>
						<circle class="st0" cx="342.9" cy="127.5" r="2.9"/>
					</g>
					<g>
						<ellipse class="st0" cx="342.9" cy="130.8" rx="0.3" ry="3.2"/>
					</g>
				</g>
				<g>
					<g>
						<circle class="st0" cx="250.2" cy="177.7" r="2.9"/>
					</g>
					<g>
						<ellipse class="st0" cx="250.2" cy="180.9" rx="0.3" ry="3.2"/>
					</g>
				</g>
				<g>
					<g>
						<circle class="st0" cx="318.8" cy="149.8" r="2.9"/>
					</g>
					<g>
						<ellipse class="st0" cx="318.8" cy="153" rx="0.3" ry="3.2"/>
					</g>
				</g>
				<g>
					<g>
						<circle class="st0" cx="236" cy="83.3" r="2.9"/>
					</g>
					<g>
						<ellipse class="st0" cx="236" cy="86.6" rx="0.3" ry="3.2"/>
					</g>
				</g>
				<g>
					<g>
						<circle class="st0" cx="269.8" cy="99.5" r="2.9"/>
					</g>
					<g>
						<ellipse class="st0" cx="269.8" cy="102.7" rx="0.3" ry="3.2"/>
					</g>
				</g>
				<g>
					<g>
						<circle class="st0" cx="216" cy="150.5" r="2.9"/>
					</g>
					<g>
						<ellipse class="st0" cx="216" cy="153.7" rx="0.3" ry="3.2"/>
					</g>
				</g>
				<g>
					<g>
						<circle class="st0" cx="219" cy="102.4" r="2.9"/>
					</g>
					<g>
						<ellipse class="st0" cx="219" cy="105.7" rx="0.3" ry="3.2"/>
					</g>
				</g>
				<polygon class="st1" points="348.9,240 373.2,227.1 373.1,250.3 				"/>
				<polygon class="st1" points="247.9,322.4 194.6,349.9 194.6,298.6 200.5,296 				"/>
				<circle class="st3" cx="324" cy="349.9" r="3.4"/>
				<polygon class="st1" points="358.5,107.2 375.5,112.4 375.5,139.1 				"/>
				<path class="st7" d="M375.7,71.5l-0.1-29.2c-1.4-10.2-10.1-18.2-20.8-18.2L328.1,24c-3.6,0-6.5,3-6.5,6.8v4.9
					c0,3.8-2.9,6.8-6.5,6.8l-52.2-0.2c-3.6,0-6.5-3.1-6.5-6.8v-4.9c0-3.8-2.9-6.8-6.5-6.8h-9.4L217,23.5c-5.5,0-10.5,2.1-14.3,5.5
					c-2.4,4.5-4.9,11-3.7,15.9l176.5,57.5L375.7,71.5z"/>
				<path class="st3" d="M375.7,71.5l-0.1-29.2c-1.4-10.2-10.1-18.2-20.8-18.2L328.1,24c-3.6,0-6.5,3-6.5,6.8v4.9
					c0,3.8-2.9,6.8-6.5,6.8l-52.2-0.2c-3.6,0-6.5-3.1-6.5-6.8v-4.9c0-3.8-2.9-6.8-6.5-6.8h-9.4L217,23.5c-5.5,0-10.5,2.1-14.3,5.5
					c-2.4,4.5-4.9,11-3.7,15.9l176.5,57.5L375.7,71.5z"/>
			</g>
		</g>
		<g>
			<g>
				<path class="st4" d="M354.8,24.1c0,0,0.2,0,0.7,0s1.2,0,2.1,0.2c1.9,0.2,4.7,0.8,7.9,2.8c1.6,0.9,3.2,2.2,4.8,3.9
					c1.5,1.7,3,3.8,4,6.3s1.6,5.4,1.5,8.6c0,3.1,0,6.4,0,9.9c-0.1,28.1-0.2,68.7-0.4,118.9c-0.2,50.2-0.4,109.9-0.7,176.3
					c0,8.3-0.1,16.7-0.1,25.2c0,2.1,0,4.3,0,6.4s-0.2,4.3-0.8,6.4c-0.6,2.1-1.5,4.1-2.7,5.9s-2.7,3.4-4.4,4.8
					c-3.4,2.7-7.7,4.5-12.2,4.7c-1.1,0.1-2.2,0.1-3.3,0.1h-3.3c-2.2,0-4.4,0-6.6,0c-8.9,0-17.8-0.1-26.8-0.1
					c-18-0.1-36.4-0.2-55.1-0.2c-9.3,0-18.7-0.1-28.2-0.1c-4.7,0-9.5,0-14.2-0.1c-4.8,0.2-9.7-1.1-13.7-3.8c-4-2.8-6.9-6.9-8.3-11.5
					c-0.7-2.3-0.9-4.8-0.8-7.1c0-2.4,0-4.7,0-7.1c0-9.5,0.1-18.8,0.1-28.2c0.1-18.6,0.2-37,0.2-55.1c0.2-36.1,0.3-70.9,0.5-104.1
					c0.1-33.2,0.3-64.7,0.4-94.2c0.1-14.8,0.1-29,0.2-42.7c0-1.7,0-3.4,0-5.1c0-0.8,0.1-1.7,0.1-2.6c0.2-0.8,0.2-1.7,0.4-2.5
					c0.8-3.3,2.3-6.4,4.5-8.9s4.9-4.5,7.8-5.8c3-1.3,6.2-1.8,9.4-1.7c6.3,0,12.4,0.1,18.4,0.1c3,0,5.9,0,8.8,0c1.5,0,2.9,0,4.3,0
					c1.4-0.1,2.9,0.3,4.1,1.2c1.2,0.8,2.1,2,2.6,3.4s0.4,2.8,0.4,4.2c0,0.7,0,1.4,0,2.1c0,0.7,0,1.4,0.1,2c0.2,1.3,0.7,2.6,1.6,3.5
					c0.8,1,2,1.7,3.2,2c0.6,0.2,1.2,0.2,1.9,0.2c0.6,0,1.3,0,1.9,0c2.6,0,5.1,0,7.6,0c10,0.1,19.2,0.1,27.8,0.1
					c4.3,0,8.4,0,12.2,0.1c1,0,1.9,0.1,2.9,0c0.9-0.1,1.8-0.4,2.6-0.9c1.6-1,2.6-2.6,3-4.2c0.2-0.8,0.2-1.7,0.2-2.6
					c0-0.9,0-1.7,0-2.5s0-1.6,0.1-2.5c0.1-0.8,0.4-1.6,0.8-2.2c0.8-1.4,2-2.4,3.4-3s2.9-0.4,4.2-0.4c5.4,0,10,0.1,13.7,0.1
					s6.5,0.1,8.4,0.1C353.9,24.1,354.8,24.1,354.8,24.1s-1,0-2.9,0s-4.7,0-8.4,0c-3.7,0-8.3,0-13.7,0c-1.3,0-2.8-0.2-4.1,0.4
					c-1.3,0.5-2.5,1.5-3.3,2.9c-0.4,0.7-0.6,1.4-0.8,2.2c-0.1,0.8-0.1,1.6-0.1,2.4s0,1.7,0,2.5s0,1.7-0.2,2.6
					c-0.4,1.7-1.5,3.4-3.1,4.4c-0.8,0.5-1.7,0.8-2.7,0.9c-1,0.1-1.9,0-2.9,0c-3.9,0-8,0-12.2,0c-8.5,0-17.8-0.1-27.8-0.1
					c-2.5,0-5,0-7.6,0c-0.6,0-1.3,0-1.9,0s-1.3,0-2-0.2c-1.3-0.3-2.5-1.1-3.4-2.1s-1.5-2.3-1.6-3.7c-0.1-0.7-0.1-1.4-0.1-2.1
					c0-0.7,0-1.4,0-2.1c0-1.4,0.1-2.8-0.4-4c-0.4-1.3-1.3-2.4-2.4-3.2c-1.1-0.8-2.5-1.2-3.9-1.1c-1.4,0-2.9,0-4.3,0
					c-2.9,0-5.9,0-8.8,0c-6,0-12.1,0-18.4-0.1c-3.1,0-6.3,0.4-9.2,1.7c-2.9,1.3-5.6,3.2-7.7,5.7c-2.1,2.5-3.6,5.5-4.4,8.7
					c-0.2,0.8-0.3,1.6-0.4,2.5c0,0.8-0.1,1.7-0.1,2.5c0,1.7,0,3.4,0,5.1c-0.1,13.7-0.1,27.9-0.2,42.7c-0.1,29.5-0.2,61-0.4,94.2
					c-0.1,33.2-0.3,68-0.4,104.1c-0.1,18.1-0.2,36.4-0.2,55.1c0,9.3-0.1,18.7-0.1,28.2c0,2.4,0,4.7,0,7.1s0.1,4.7,0.8,7
					c1.3,4.5,4.2,8.6,8.1,11.3c3.9,2.7,8.7,4,13.4,3.7c4.8,0,9.5,0,14.2,0.1c9.5,0,18.8,0.1,28.2,0.1c18.6,0.1,37,0.2,55.1,0.3
					c9,0,18,0.1,26.8,0.1c2.2,0,4.4,0,6.6,0h3.3c1.1,0,2.2,0,3.3,0c4.3-0.2,8.5-1.9,11.9-4.6c1.7-1.4,3.1-3,4.3-4.7
					c1.2-1.8,2-3.7,2.6-5.8c0.6-2,0.8-4.2,0.8-6.3c0-2.1,0-4.3,0-6.4c0-8.5,0.1-16.9,0.1-25.2c0.3-66.3,0.6-126.1,0.8-176.3
					c0.2-50.2,0.4-90.8,0.6-118.9c0-3.5,0-6.8,0.1-9.9c0-3.1-0.5-6-1.5-8.5s-2.4-4.6-3.9-6.3s-3.1-3-4.7-3.9c-3.2-1.9-6-2.6-7.8-2.8
					c-0.9-0.2-1.7-0.1-2.1-0.2C355.1,24.1,354.8,24.1,354.8,24.1z"/>
			</g>
		</g>
	</g>
</g>
<g>
	<g>
		<path class="st4" d="M417.4,222.8c14.8,0.4,29.8,0.8,44.1,4.6c14.3,3.8,28.1,11.4,36.6,23.5c9.4,13.4,11.2,30.4,12.2,46.7
			c1.6,27,1.4,54.1-1.3,81.1c-1.3,13.6-6.2,26.3-18.9,31.5c-15.3,6.2-35.8,0-35.8,0"/>
		<g>
			<path class="st5" d="M457.1,406.9c0,0,0.2,0,0.6,0s0.9,0,1.6,0c1.5,0,3.6,0,6.3,0c2.7,0,6.1,0,10-0.5c1-0.2,2-0.3,3-0.5
				c0.5-0.1,1-0.2,1.5-0.3c0.5-0.1,1-0.3,1.6-0.5c1.1-0.3,2.1-0.7,3.2-1.1c1.1-0.5,2.2-0.9,3.2-1.6c2.1-1.2,4.2-2.8,5.9-4.8
				c1.8-2,3.2-4.4,3.9-7.2c1.4-5.6,2-11.8,2.2-18.2c0.2-6.5,0.1-13.3,0.2-20.4c0-7.1,0.1-14.4,0.1-21.9s0.1-14.8-0.1-21.9
				s-0.8-13.9-1.9-20.3c-2.2-12.8-6.6-23.9-12.4-31.8c-2.9-4-6-7.1-8.8-9.8s-5.4-4.8-7.5-6.6s-3.7-3.1-4.9-4.1
				c-0.5-0.5-1-0.8-1.3-1.1c-0.3-0.2-0.4-0.4-0.4-0.4s0.2,0.1,0.5,0.3s0.7,0.6,1.3,1c1.1,0.9,2.8,2.3,4.9,4s4.7,3.9,7.6,6.6
				c2.8,2.7,6,5.8,8.9,9.8c5.9,8,10.4,19.1,12.6,32c1.1,6.4,1.7,13.2,1.9,20.3c0.3,7.1,0.2,14.4,0.1,21.9c0,7.5-0.1,14.8-0.1,21.9
				c-0.1,7.1,0,13.9-0.2,20.4s-0.9,12.7-2.3,18.3c-0.8,2.8-2.2,5.3-4,7.4c-1.8,2-3.9,3.6-6.1,4.8c-1.1,0.6-2.2,1.1-3.2,1.6
				c-1.1,0.4-2.2,0.8-3.2,1.1c-0.5,0.2-1.1,0.3-1.6,0.5c-0.5,0.1-1,0.2-1.6,0.3c-1,0.3-2,0.4-3,0.5c-3.9,0.5-7.3,0.5-10,0.4
				c-2.7,0-4.9,0-6.3,0c-0.7,0-1.3,0-1.6,0C457.3,406.9,457.1,406.9,457.1,406.9z"/>
		</g>
		<g>
			<path class="st5" d="M500.7,333.7c0-0.1,2.3-0.8,5.2-0.9c2.9-0.1,5.3,0.3,5.3,0.4c0,0.2-2.4-0.1-5.2,0.1
				C503,333.4,500.7,333.8,500.7,333.7z"/>
		</g>
		<g>
			<path class="st0" d="M436.7,223.6c0,0,0.1,0,0.4,0s0.7,0,1.1,0c1,0,2.5,0,4.3,0.2c3.7,0.4,9.2,1.1,15.6,3.3
				c0.8,0.3,1.6,0.6,2.4,0.9c0.4,0.2,0.8,0.3,1.3,0.5c0.4,0.2,0.8,0.4,1.2,0.6c0.8,0.4,1.7,0.8,2.6,1.2s1.7,0.9,2.6,1.4
				c3.5,1.8,7.1,4.2,10.6,6.9s7,5.9,10.2,9.6c3.2,3.7,6.1,7.9,8.3,12.6c4.5,9.3,6.4,19.1,7.4,28c0.9,8.9,1,16.9,1,23.7
				c0,6.7,0,12.2,0.1,16c0.1,1.9,0.1,3.3,0.1,4.3c0,0.5,0,0.8,0,1.1c0,0.3,0,0.4,0,0.4s0-0.1,0-0.4s0-0.7-0.1-1.1
				c-0.1-1-0.1-2.5-0.2-4.3c-0.2-3.8-0.2-9.2-0.3-16c-0.1-6.7-0.2-14.8-1.1-23.6c-1-8.8-3-18.5-7.4-27.8c-2.2-4.6-5-8.8-8.2-12.4
				c-3.2-3.6-6.6-6.8-10.1-9.6c-3.5-2.7-7-5.1-10.5-6.9c-0.9-0.5-1.7-1-2.6-1.4s-1.7-0.8-2.5-1.2c-0.4-0.2-0.8-0.4-1.2-0.6
				c-0.4-0.2-0.8-0.3-1.2-0.5c-0.8-0.3-1.6-0.6-2.4-0.9c-6.3-2.3-11.8-3-15.5-3.5c-1.9-0.2-3.3-0.2-4.3-0.3c-0.5,0-0.8-0.1-1.1-0.1
				C436.8,223.6,436.7,223.6,436.7,223.6z"/>
		</g>
		<g>
			<path class="st4" d="M427.5,223.5c0,0,3.6-9.6,16.6-7.8c0,0,5.8-0.3,6.8,2.9c0,0-12-3-17.2,5.3L427.5,223.5z"/>
			<path class="st5" d="M464.3,235.2h-7.6c0,0-1.5-20-19.8-19.3C436.9,216,459.7,208.3,464.3,235.2z"/>
		</g>
		<g>
			<polygon class="st5" points="500.8,345.9 511.7,347.4 510.6,351.2 500.5,350.5 			"/>
			<g>
				<path class="st7" d="M501.5,349.4c-0.1-0.1,0.4-0.8,1.3-1.9l0.2-0.2l0.2,0.2c0.5,0.6,1,1.2,1.5,1.8h-0.3
					c0.4-0.3,0.7-0.5,1.1-0.8s0.8-0.5,1.1-0.8l0.2-0.2l0.1,0.2c0.5,0.7,0.9,1.3,1.4,2H508c1.2-0.8,1.9-1.2,2-1.2
					c0,0.1-0.6,0.6-1.7,1.5H508l-0.1-0.2c-0.5-0.6-1-1.2-1.5-1.9l0.4,0.1c-0.4,0.3-0.7,0.5-1.1,0.8s-0.7,0.5-1.1,0.8l-0.2,0.1
					l-0.1-0.2c-0.5-0.7-1-1.3-1.4-1.9h0.3C502.2,348.8,501.5,349.4,501.5,349.4z"/>
			</g>
		</g>
	</g>
	<g>
		<path class="st3" d="M343,417.3c0,0-2.1-6.8-1.7-9.7c0.4-2.9,4.3-5.5,4.3-5.5l-4.2-109.7c0,0-0.5-48,24.8-62.9l15.2-3.8l37.4-2.2
			c1.2,0.4,45.1,16.9,51.2,23.4l-19,96.7c0,0,2.3,28.6,4.6,49.1c0.5,4.2,3.6,24.9,3.6,24.9L343,417.3z"/>
		<g class="st8">
			<path d="M454.9,386.2c-0.4,2.7-1.4,5.9-3.9,6.7c-2.6,0.8-5.3,0.6-8,0.1c-9.4-1.7-18-6.1-26.4-10.4c-15.8-8.1-31.8-16.3-45.4-27.7
				c-1.9-1.6-4-4.1-2.8-6.3c1.3-2.5,5.1-1.7,7.7-0.5C402.8,360.5,428.1,373.9,454.9,386.2"/>
		</g>
		<path class="st3" d="M360.6,232.5c0,0-16.7,5.6-22.1,21.1c-6,17.1-9.9,50.4-9.9,50.4l16.5,2.1L360.6,232.5z"/>
		<path class="st3" d="M469.9,246.9c0,0,9,11.8,13.3,26.1c4.4,14.3,6.9,55.9,6.9,55.9l-45-0.6l-2.4-36.6
			C442.7,291.7,438.2,230.7,469.9,246.9z"/>
		<g>
			<path class="st6" d="M334.4,268.6c0,0,0.3-0.5,1.2-1.2c0.9-0.6,2.6-1.3,4.7-0.9c2.2,0.3,4.3,2,7.1,3.1c1.4,0.5,3,0.9,4.6,0.6
				c1.6-0.4,3.1-1.5,4.6-2.7c0.8-0.6,1.6-1.2,2.5-1.6s2.1-0.6,3.1-0.1c1,0.4,1.8,1.3,2.4,2.2c0.6,0.9,1.1,1.9,1.8,2.8
				c0.6,0.9,1.5,1.6,2.5,2c1,0.3,2.2,0.3,3.3,0c1.1-0.3,2.2-0.8,3.3-1.4c1-0.6,2-1.4,3.1-2c1.1-0.7,2.2-1.3,3.5-1.7
				c1.3-0.4,2.7-0.5,4,0c1.3,0.4,2.4,1.2,3.5,2.1c1,0.9,2,1.8,3.1,2.7c1.1,0.8,2.2,1.5,3.6,1.7c1.3,0.3,2.7,0.1,4-0.4
				c2.6-1,4.9-2.7,7.5-4.2c1.3-0.7,2.6-1.4,4.1-1.6c1.4-0.3,3-0.2,4.3,0.3c2.7,1.1,4.7,3.1,7.2,4.3c0.6,0.3,1.2,0.5,1.9,0.7
				c0.6,0.1,1.3,0.2,1.9,0.1c1.3-0.1,2.5-0.5,3.7-1.1c2.4-1.1,4.5-2.6,7-3.4c1.2-0.4,2.5-0.6,3.8-0.3c1.3,0.2,2.4,0.9,3.3,1.7
				c1.8,1.5,3.3,3.5,5.4,4.1c1,0.3,2.1,0.3,3.1,0.1c1-0.2,2-0.6,3-0.9c1.9-0.7,4-1.4,5.9-0.9c1,0.2,1.8,0.7,2.5,1.3
				c0.7,0.6,1.4,1.2,2,1.7c0.6,0.6,1.3,1.1,2,1.4c0.7,0.4,1.4,0.6,2.2,0.7c1.5,0.2,2.9,0,4.1-0.4s2.2-1,3.1-1.6
				c1.7-1.2,2.9-2.4,3.7-3.2c0.4-0.4,0.7-0.7,0.9-0.9c0.2-0.2,0.3-0.3,0.3-0.3s-0.1,0.1-0.3,0.3c-0.2,0.2-0.5,0.5-0.9,0.9
				c-0.8,0.8-1.9,2-3.6,3.3c-0.9,0.6-1.9,1.2-3.1,1.7c-1.2,0.4-2.7,0.7-4.2,0.5c-0.8-0.1-1.5-0.3-2.3-0.7c-0.7-0.4-1.4-0.9-2-1.5
				c-1.3-1.1-2.6-2.5-4.4-2.9s-3.8,0.3-5.7,1c-1,0.3-2,0.7-3.1,0.9c-1.1,0.2-2.2,0.3-3.4-0.1c-1.1-0.3-2.1-1-3-1.8s-1.7-1.6-2.6-2.4
				c-0.9-0.7-1.9-1.4-3.1-1.6s-2.4-0.1-3.5,0.3c-2.3,0.8-4.5,2.3-6.9,3.4c-1.2,0.6-2.5,1-3.9,1.1c-0.7,0-1.4,0-2.1-0.1
				c-0.7-0.2-1.4-0.4-2-0.7c-2.5-1.2-4.5-3.3-7.1-4.3c-1.3-0.5-2.7-0.6-4.1-0.3c-1.4,0.3-2.7,0.9-3.9,1.6c-2.5,1.4-4.8,3.2-7.5,4.2
				c-1.3,0.5-2.8,0.7-4.3,0.4c-1.4-0.2-2.7-1-3.8-1.8c-2.2-1.7-3.9-3.9-6.4-4.7c-1.2-0.4-2.5-0.3-3.7,0c-1.2,0.4-2.3,1-3.4,1.6
				c-1.1,0.7-2.1,1.4-3.1,2c-1.1,0.6-2.2,1.1-3.4,1.4c-1.2,0.3-2.4,0.4-3.6,0c-1.2-0.3-2.1-1.2-2.8-2.1c-0.7-0.9-1.2-1.9-1.8-2.8
				c-0.6-0.9-1.3-1.7-2.2-2c-0.9-0.4-1.9-0.3-2.8,0.1s-1.7,0.9-2.4,1.5c-1.5,1.1-3,2.3-4.7,2.7c-1.7,0.4-3.4-0.1-4.8-0.6
				c-2.8-1.1-4.9-2.8-7-3.2c-2.1-0.4-3.7,0.2-4.6,0.8C334.8,268.1,334.4,268.6,334.4,268.6z"/>
		</g>
		<g>
			<path class="st6" d="M329.1,295.6c0,0,0.2,0,0.4,0c0.3,0,0.7,0.1,1.3,0.1c1.1,0.1,2.8,0.5,4.9-0.1c1.1-0.2,2.3-0.4,3.6-0.7
				c1.3-0.2,2.7-0.5,4.2-0.7s3.2-0.2,4.9,0.4c1.7,0.5,3.3,1.4,5.2,2c1.8,0.6,3.9,0.7,5.9,0.2s4-1.4,6.2-2.2c2.1-0.8,4.6-1.4,7-0.7
				c2.4,0.7,4.4,2.5,6.8,3.1c0.6,0.1,1.2,0.2,1.8,0.1c0.6-0.1,1.2-0.2,1.8-0.4c1.2-0.4,2.4-1,3.7-1.5c1.3-0.5,2.8-0.7,4.1-0.1
				c1.4,0.5,2.4,1.5,3.5,2.3c0.6,0.4,1.1,0.8,1.7,1.1c0.6,0.3,1.3,0.4,2,0.4c1.4-0.1,2.7-0.6,4-1.2s2.6-1.3,4.1-1.6
				c0.7-0.2,1.5-0.3,2.3-0.2c0.8,0.1,1.5,0.4,2.2,0.7c1.4,0.7,2.5,1.7,3.7,2.5c0.6,0.4,1.2,0.8,1.9,1c0.3,0.1,0.7,0.2,1,0.3l0.5,0.1
				h0.5c1.4,0,2.8-0.4,4.1-0.9c1.3-0.5,2.6-1,4-1.4c1.3-0.4,2.8-0.7,4.2-0.3c1.4,0.3,2.6,1.2,3.6,2.1s1.9,1.9,2.9,2.6s2.3,1.1,3.5,1
				s2.4-0.5,3.5-1.1c1.1-0.5,2.2-1.2,3.2-1.8c2.1-1.2,4.4-2.2,6.8-2c2.4,0.3,4.3,1.6,6,2.8c1.7,1.2,3.3,2.5,5,3.4
				c1.7,0.8,3.5,1.3,5.2,1.4s3.4-0.1,4.9-0.4c3-0.7,5.3-2,7-3.4s2.6-2.8,3.3-3.7c0.3-0.5,0.5-0.9,0.6-1.1c0.1-0.3,0.2-0.4,0.2-0.4
				s-0.1,0.1-0.2,0.4s-0.3,0.7-0.6,1.2c-0.6,1-1.5,2.4-3.2,3.8s-4,2.8-7.1,3.5c-1.5,0.3-3.2,0.5-4.9,0.4c-1.8-0.1-3.6-0.6-5.4-1.4
				s-3.4-2.1-5.1-3.4c-1.7-1.2-3.6-2.5-5.8-2.7c-2.2-0.3-4.4,0.8-6.5,1.9c-1.1,0.6-2.1,1.2-3.2,1.8c-1.1,0.6-2.4,1-3.7,1.1
				c-1.3,0.1-2.7-0.3-3.8-1.1c-1.1-0.8-2-1.8-3-2.7c-1-0.9-2-1.7-3.3-2s-2.6-0.1-4,0.3c-1.3,0.4-2.6,1-3.9,1.4
				c-1.3,0.5-2.8,0.9-4.3,0.9h-0.6l-0.6-0.1c-0.4-0.1-0.7-0.2-1.1-0.3c-0.7-0.3-1.4-0.7-2-1.1c-1.2-0.8-2.3-1.8-3.6-2.5
				c-0.6-0.3-1.3-0.6-2-0.7s-1.4,0-2.1,0.1c-1.4,0.3-2.7,1-4,1.6s-2.7,1.2-4.2,1.2c-0.7,0-1.5-0.1-2.2-0.4s-1.3-0.7-1.8-1.1
				c-1.1-0.8-2.1-1.8-3.4-2.3c-1.2-0.5-2.6-0.3-3.8,0.1c-1.2,0.4-2.4,1-3.7,1.5c-0.6,0.2-1.3,0.4-2,0.5s-1.4,0-2-0.1
				c-2.6-0.7-4.5-2.5-6.8-3.1s-4.7-0.1-6.8,0.7c-2.1,0.7-4.2,1.7-6.3,2.2c-2.1,0.6-4.2,0.5-6.1-0.2c-1.9-0.6-3.5-1.5-5.1-2
				s-3.3-0.5-4.8-0.4c-1.5,0.2-2.9,0.5-4.2,0.7c-1.3,0.2-2.5,0.4-3.6,0.6c-0.5,0.1-1,0.2-1.5,0.3c-0.5,0.1-0.9,0-1.4,0
				c-0.8-0.1-1.5-0.2-2.1-0.3c-0.5-0.1-1-0.1-1.3-0.2C329.2,295.6,329.1,295.6,329.1,295.6z"/>
		</g>
		<g>
			<path class="st6" d="M345.7,319.2c0,0,0.1,0,0.3,0c0.2,0,0.5,0.1,0.9,0.1c0.8,0.1,1.9,0.2,3.3,0.4c2.9,0.4,7,1.3,12.2,1.7
				c2.6,0.2,5.4,0.2,8.5-0.2c1.5-0.1,3.1-0.3,4.8,0c0.8,0.1,1.7,0.3,2.4,0.7c0.8,0.4,1.5,0.9,2.2,1.4c1.4,1.1,2.7,2.3,4.3,2.8
				c0.8,0.3,1.7,0.2,2.6,0s1.7-0.6,2.5-1c0.9-0.4,1.7-0.8,2.7-0.9c1-0.2,2.1,0.1,2.9,0.6c1.7,1,2.9,2.8,4.6,3.5
				c1.8,0.8,3.8,0.3,5.6-0.2c1.8-0.5,3.7-1.3,5.6-1.3c1,0,1.9,0.2,2.8,0.6s1.6,1,2.3,1.6c1.4,1.2,2.6,2.5,4.1,3.2s3.2,0.5,4.7,0
				s3-1.2,4.5-1.6c1.5-0.3,3.1-0.4,4.5,0.3c0.7,0.4,1.2,0.9,1.5,1.5s0.5,1.3,0.7,1.9s0.5,1.2,0.9,1.6s0.9,0.7,1.4,0.9
				c1.1,0.4,2.2,0.3,3.2,0s1.8-0.8,2.4-1.5c0.6-0.6,1.1-1.3,1.4-1.9c0.7-1.3,1.1-2.3,1.4-3c0.1-0.3,0.2-0.6,0.3-0.8
				c0.1-0.2,0.1-0.3,0.1-0.3s0,0.1-0.1,0.3c-0.1,0.2-0.2,0.5-0.3,0.8c-0.3,0.7-0.6,1.8-1.3,3.1c-0.4,0.6-0.8,1.3-1.4,2
				s-1.4,1.2-2.5,1.6c-1,0.3-2.2,0.4-3.4,0.1c-0.6-0.2-1.1-0.5-1.6-1s-0.7-1.1-1-1.7c-0.2-0.6-0.4-1.3-0.7-1.8
				c-0.3-0.6-0.8-1.1-1.4-1.4c-1.2-0.6-2.7-0.6-4.2-0.3c-1.5,0.3-2.9,1.1-4.4,1.6c-0.8,0.3-1.6,0.5-2.5,0.5s-1.8-0.1-2.6-0.5
				c-1.6-0.8-2.9-2.1-4.2-3.2c-0.7-0.6-1.4-1.1-2.2-1.5c-0.8-0.4-1.7-0.5-2.6-0.5c-1.8,0-3.6,0.7-5.5,1.3c-0.9,0.3-1.9,0.5-2.9,0.6
				s-2.1,0-3-0.4c-2-0.9-3.1-2.6-4.7-3.6c-0.8-0.5-1.7-0.7-2.6-0.6s-1.8,0.5-2.6,0.9c-0.8,0.4-1.7,0.8-2.6,1.1
				c-0.9,0.3-1.9,0.3-2.8,0c-1.8-0.6-3.1-1.9-4.5-2.9c-0.7-0.5-1.3-1-2.1-1.4c-0.7-0.4-1.5-0.6-2.3-0.7c-1.6-0.2-3.2-0.1-4.7,0
				c-3,0.3-5.9,0.3-8.5,0.1c-5.2-0.5-9.3-1.4-12.2-1.9c-1.4-0.2-2.5-0.4-3.3-0.5c-0.4-0.1-0.6-0.1-0.9-0.1
				C345.8,319.2,345.7,319.2,345.7,319.2z"/>
		</g>
		<g>
			<path class="st6" d="M344.3,385.9c0,0,0.1,0,0.3-0.1c0.2-0.1,0.5-0.2,0.9-0.3c0.8-0.3,1.9-0.7,3.4-1.2s3.3-1.1,5.5-1.3
				c1.1-0.1,2.3,0.2,3.5,0.6s2.4,0.9,3.8,1.1c1.3,0.1,2.7-0.3,4.1-0.9s2.8-1.4,4.4-1.8s3.4-0.1,5.1,0.3c1.7,0.5,3.4,1.1,5.1,1.6
				s3.6,0.9,5.4,0.5s3.5-1.4,5.4-2.1c0.9-0.4,1.9-0.7,3-0.7s2.2,0.2,3.1,0.8c1.8,1.1,3.1,2.9,5.1,3.6c0.9,0.3,2,0.3,3,0.1
				c1-0.2,1.9-0.7,2.9-1.1c0.9-0.4,1.9-0.9,2.9-1.1c1-0.3,2.1-0.4,3.1-0.1s1.8,1,2.5,1.7s1.3,1.4,2,2c1.4,1.3,3.4,1.5,5.1,1.1
				c1.8-0.3,3.4-1,5.1-1.5c0.9-0.2,1.7-0.4,2.6-0.4s1.8,0.2,2.5,0.6c0.8,0.4,1.3,1,1.8,1.7s0.8,1.4,1.2,2c0.7,1.3,1.6,2.5,2.9,2.9
				s2.6,0.1,3.7-0.4s2-1.3,2.7-2.1c1.4-1.7,2.1-3.4,2.9-4.8c0.7-1.4,1.4-2.4,1.9-3s0.8-0.9,0.8-0.9s-0.3,0.3-0.8,1s-1.1,1.7-1.8,3.1
				c-0.7,1.4-1.4,3.2-2.8,4.9c-0.7,0.8-1.7,1.6-2.8,2.2c-1.1,0.6-2.6,0.9-4,0.4c-1.4-0.4-2.4-1.8-3.1-3.1c-0.8-1.3-1.5-2.8-2.9-3.5
				c-1.4-0.8-3.1-0.6-4.7-0.1c-1.7,0.4-3.3,1.1-5.2,1.5c-0.9,0.2-1.9,0.3-2.9,0.1c-0.5,0-0.9-0.3-1.4-0.4c-0.4-0.2-0.9-0.5-1.2-0.8
				c-0.8-0.6-1.4-1.4-2.1-2.1s-1.4-1.3-2.3-1.6c-0.9-0.3-1.9-0.2-2.8,0.1c-0.9,0.3-1.9,0.7-2.8,1.1s-1.9,0.9-3,1.1
				c-1,0.3-2.2,0.3-3.3-0.1c-2.1-0.8-3.4-2.6-5.1-3.6c-0.8-0.5-1.8-0.8-2.8-0.7c-1,0-1.9,0.3-2.8,0.7c-1.8,0.7-3.6,1.7-5.5,2.1
				c-2,0.4-3.9,0-5.7-0.5c-1.8-0.5-3.4-1.2-5.1-1.6s-3.3-0.7-4.9-0.3c-1.6,0.3-2.9,1.1-4.3,1.7s-2.9,1.1-4.3,0.9s-2.7-0.7-3.8-1.1
				c-1.2-0.4-2.3-0.7-3.4-0.6c-2.2,0.2-4,0.8-5.5,1.2c-1.5,0.5-2.6,0.8-3.4,1.1c-0.4,0.1-0.7,0.2-0.9,0.3
				C344.4,385.9,344.3,385.9,344.3,385.9z"/>
		</g>
		<g>
			<path class="st6" d="M400.5,361.1c0,0-0.2,0.1-0.6,0.4c-0.4,0.2-1,0.5-1.8,0.8c-1.6,0.6-4,1.1-7.1,0.7c-0.7-0.1-1.5-0.3-2.3-0.5
				c-0.8-0.3-1.6-0.6-2.4-0.9s-1.7-0.6-2.5-0.5c-0.9,0.1-1.7,0.5-2.5,1.1s-1.6,1.2-2.5,1.8c-0.5,0.3-1,0.5-1.5,0.7
				c-0.3,0.1-0.6,0.1-0.8,0.1c-0.3,0-0.6,0-0.8,0c-2.3-0.3-4.1-1.8-6.1-2.8c-1-0.5-2.1-0.9-3.1-0.8h-0.4c-0.1,0-0.2,0.1-0.4,0.1
				c-0.2,0.1-0.5,0.2-0.7,0.3c-0.4,0.3-0.8,0.6-1.2,1c-0.7,0.8-1.3,1.7-2.2,2.3c-0.4,0.3-0.9,0.6-1.5,0.7c-0.5,0.1-1.1,0-1.6-0.2
				c-1-0.5-1.6-1.3-2.1-2.1c-0.5-0.8-1-1.5-1.6-2.2c-1.2-1.2-2.8-1.8-4.3-1.7c-1.5,0-2.7,0.8-3.6,1.4c-0.9,0.7-1.6,1.5-2.1,2.2
				c-0.9,1.4-0.7,2.4-0.8,2.4c0,0-0.1-0.2,0-0.7c0-0.4,0.2-1.1,0.7-1.8c0.4-0.7,1.1-1.5,2.1-2.3c0.9-0.7,2.2-1.5,3.8-1.6
				c1.5-0.1,3.3,0.4,4.6,1.8c0.6,0.7,1.1,1.4,1.6,2.2c0.5,0.7,1.1,1.5,1.9,1.9s1.8,0.2,2.6-0.4c0.8-0.6,1.4-1.5,2.1-2.3
				c0.4-0.4,0.8-0.8,1.3-1.1c0.3-0.2,0.5-0.3,0.8-0.4c0.1,0,0.3-0.1,0.4-0.1l0.4-0.1c1.2-0.1,2.4,0.3,3.4,0.8c2,1,3.8,2.5,5.9,2.8
				c1,0.1,2-0.1,2.9-0.7c0.9-0.5,1.6-1.2,2.5-1.8c0.8-0.6,1.7-1.1,2.7-1.1c1-0.1,1.9,0.2,2.7,0.6c0.8,0.4,1.6,0.7,2.3,1
				c0.8,0.3,1.5,0.4,2.2,0.6c2.9,0.5,5.4,0,6.9-0.6C399.7,361.6,400.5,361.1,400.5,361.1z"/>
		</g>
		<g>
			<path class="st6" d="M345.3,412.6c0,0,0.1,0,0.3,0.1c0.1,0,0.2,0.1,0.4,0.1c0.1,0,0.3,0,0.5,0.1c0.8,0.1,2-0.1,3.3-0.8
				c1.4-0.6,2.9-1.7,5.1-2.3c0.5-0.1,1.1-0.1,1.7-0.1c0.6,0.1,1.2,0.3,1.8,0.6c1.1,0.6,2.1,1.5,3.2,2.3s2.4,1.5,3.8,1.4
				s2.8-0.9,4.3-1.6c0.7-0.3,1.5-0.6,2.4-0.8c0.9-0.2,1.7-0.1,2.6,0.1c1.7,0.3,3.4,1.1,5.1,1.5c1.7,0.5,3.6,0.5,5.4,0.1
				s3.6-1.1,5.5-1.8c1.8-0.7,3.8-1.4,5.8-1.7c2.1-0.3,4.2,0.1,6.2,1c1.9,0.8,3.7,1.9,5.6,2.7c1.8,0.8,3.9,1.1,5.7,0.5
				c3.7-1.1,6.5-4.1,10-5.3c1.7-0.6,3.7-0.6,5.3,0c1.7,0.5,3.1,1.4,4.5,2.3s2.6,1.8,3.9,2.5s2.6,1.3,3.9,1.6
				c2.7,0.6,5.2,0.3,7.2-0.3c2.1-0.6,3.7-1.6,4.9-2.5c2.4-1.9,3.1-3.5,3.2-3.5c0,0,0,0.1-0.2,0.3c-0.1,0.2-0.3,0.5-0.5,0.8
				c-0.5,0.6-1.2,1.6-2.4,2.6c-1.2,1-2.8,2-4.9,2.6s-4.7,1-7.4,0.4c-1.4-0.3-2.7-0.8-4-1.6c-1.3-0.7-2.6-1.6-3.9-2.5
				c-1.4-0.9-2.8-1.7-4.4-2.2s-3.4-0.6-5.1,0s-3.2,1.6-4.8,2.6c-1.6,1-3.2,2.1-5.2,2.7s-4.1,0.2-6-0.5c-1.9-0.8-3.7-1.9-5.6-2.7
				c-1.9-0.9-3.9-1.2-5.9-0.9c-2,0.2-3.9,0.9-5.7,1.6c-1.8,0.7-3.7,1.4-5.5,1.8c-1.9,0.4-3.8,0.4-5.6-0.1c-1.8-0.5-3.4-1.2-5-1.5
				c-0.8-0.2-1.7-0.2-2.4-0.1c-0.8,0.1-1.5,0.4-2.3,0.7c-1.5,0.6-2.9,1.4-4.4,1.6c-1.6,0.1-3-0.6-4.1-1.5c-1.1-0.8-2.1-1.7-3.2-2.3
				c-0.5-0.3-1.1-0.5-1.6-0.6c-0.6-0.1-1.1,0-1.6,0.1c-2.1,0.5-3.7,1.6-5.1,2.2c-1.4,0.7-2.6,0.9-3.4,0.7c-0.2,0-0.4-0.1-0.5-0.1
				c-0.1-0.1-0.3-0.1-0.4-0.1C345.4,412.6,345.3,412.6,345.3,412.6z"/>
		</g>
		<g>
			<path class="st6" d="M347.8,240.6c0,0,0.3,0.4,1,0.9s1.8,1.2,3.4,1.5c1.6,0.4,3.6,0.3,6,0.1c1.2-0.1,2.4-0.2,3.8-0.2
				c1.3,0,2.8,0.2,4.2,0.8c1.4,0.6,2.7,1.4,4.1,2.2c0.7,0.4,1.4,0.7,2.2,1c0.8,0.2,1.6,0.4,2.5,0.4c1.7,0.1,3.5-0.3,5.3-0.6
				s3.8-0.7,5.8-0.4c2,0.2,3.9,1.3,5.6,2.3c1.7,1.1,3.5,2.2,5.6,2.5c1,0.1,2.1,0,3.1-0.2c1-0.3,2-0.7,3-1.1c2-0.9,3.9-2.1,6.2-2.6
				c1.1-0.3,2.3-0.4,3.4-0.2s2.2,0.6,3.2,1.2c1.9,1.1,3.6,2.5,5.5,3.4s4,1.1,6,0.7c2-0.3,3.9-0.9,5.8-1.5s3.7-1.1,5.6-1.4
				c1.9-0.2,3.7-0.1,5.4,0.3c3.4,0.8,6.4,2.3,9.1,3.4c2.7,1.2,5.4,1.4,7.7,1.2c2.3-0.2,4.3-0.8,5.8-1.5c3.1-1.4,4-3.1,4.1-3
				c0,0-0.2,0.4-0.9,1c-0.6,0.6-1.7,1.4-3.2,2.2c-1.5,0.7-3.5,1.3-5.9,1.6c-1.2,0.1-2.5,0.1-3.8,0s-2.7-0.6-4.1-1.1
				c-2.8-1-5.7-2.5-9.1-3.3c-1.7-0.4-3.5-0.5-5.3-0.3s-3.6,0.8-5.5,1.4c-1.9,0.6-3.8,1.2-5.9,1.5c-2,0.3-4.3,0.2-6.3-0.8
				c-2-0.9-3.7-2.4-5.6-3.4c-0.9-0.5-2-1-3-1.1c-1.1-0.2-2.2-0.1-3.2,0.2c-2.2,0.5-4.1,1.7-6.1,2.6c-1,0.5-2,0.9-3.1,1.2
				s-2.2,0.4-3.3,0.2c-2.2-0.3-4.1-1.5-5.8-2.6c-1.7-1.1-3.5-2.1-5.4-2.3c-3.8-0.4-7.5,1.2-11,1c-0.9,0-1.8-0.2-2.6-0.4
				c-0.8-0.3-1.6-0.6-2.3-1c-1.4-0.8-2.7-1.6-4.1-2.2c-2.7-1.1-5.5-0.7-7.8-0.6c-2.3,0.2-4.4,0.2-6.1-0.2c-1.6-0.4-2.8-1-3.5-1.6
				C348,241.1,347.8,240.6,347.8,240.6z"/>
		</g>
		<g class="st8">
			<path d="M422.8,252.2l14.1,9.8c-4.5,11.1-0.3,26.6,3.6,39.2c1.5,4.9,6.5,10,6.3,15.2c-0.2,5.1,4.1,13.9-0.9,15.2
				c-3.3,0.9-6.9-0.3-9.6-2.3s-4.8-4.9-6.6-7.8C419.7,305.4,415.1,274.7,422.8,252.2z"/>
		</g>
		<g>
			<path class="st4" d="M348.5,404.1c0,0,0.2,0,0.5,0.1c0.4,0.1,0.9,0.2,1.5,0.3c1.4,0.3,3.3,0.6,5.6,1.1c4.7,0.9,11.2,2,18.5,3
				c7.2,1,13.8,1.7,18.6,2.1c2.3,0.2,4.2,0.4,5.7,0.5c0.6,0.1,1.1,0.1,1.5,0.1s0.5,0.1,0.5,0.1s-0.2,0-0.5,0c-0.4,0-0.9,0-1.5-0.1
				c-1.3-0.1-3.3-0.2-5.7-0.3c-4.8-0.3-11.4-1-18.6-2c-7.3-1-13.8-2.2-18.5-3.2c-2.3-0.5-4.2-0.9-5.5-1.2c-0.6-0.2-1.1-0.3-1.5-0.4
				C348.6,404.2,348.5,404.1,348.5,404.1z"/>
		</g>
		<g>
			<path class="st4" d="M370.4,401.5c0,0,0.3,0,0.8,0.2c0.5,0.1,1.3,0.4,2.4,0.6c2.1,0.5,5.1,1,8.8,1.1c3.8,0.2,8.3-0.1,13.1-1.2
				c4.8-1.1,10-3.1,14.9-6.1c4.8-3.1,8.9-6.8,12-10.7c3.1-3.9,5.3-7.8,6.8-11.2c1.5-3.4,2.4-6.4,2.9-8.4c0.3-1,0.4-1.8,0.5-2.4
				c0.1-0.5,0.2-0.8,0.2-0.8s0,0.3-0.1,0.8s-0.2,1.4-0.4,2.4c-0.4,2.1-1.2,5-2.7,8.5s-3.7,7.5-6.8,11.4c-3.1,3.9-7.2,7.8-12.1,10.9
				c-4.9,3-10.2,5-15.1,6.1s-9.5,1.3-13.2,1.1c-3.8-0.2-6.8-0.8-8.9-1.3c-1-0.2-1.8-0.5-2.3-0.7
				C370.7,401.6,370.4,401.5,370.4,401.5z"/>
		</g>
		<g>
			<path class="st4" d="M379.3,225.7c0,0,0,0.2,0,0.7s0,1.2,0,2.1c0,1.8,0,4.4,0.8,7.5c0.4,1.5,1,3.2,2.2,4.7
				c1.1,1.5,2.6,2.8,4.5,3.8c1.8,1,3.9,1.7,6.2,2.2c2.2,0.5,4.6,0.7,7,0.7c4.8-0.1,9.4-1.4,13-3.7c3.6-2.2,6-5.3,7.5-8.1
				c1.4-2.8,1.9-5.4,1.9-7.2c0.1-1.8-0.1-2.8-0.1-2.8s0.1,0.2,0.1,0.7c0.1,0.5,0.1,1.2,0.1,2.1c0,1.8-0.4,4.5-1.8,7.4
				s-3.9,6.1-7.5,8.3c-3.6,2.3-8.3,3.7-13.2,3.8c-2.5,0.1-4.9-0.2-7.1-0.7c-2.3-0.5-4.4-1.2-6.3-2.3c-1.9-1-3.5-2.4-4.6-4
				c-1.1-1.5-1.8-3.3-2.2-4.8c-0.7-3.2-0.6-5.8-0.6-7.6c0-0.9,0.1-1.6,0.1-2.1C379.3,225.9,379.3,225.7,379.3,225.7z"/>
		</g>
	</g>
	<g>
		<path class="st5" d="M373.2,227.4c0,0-24.3,0.9-30.1,25.2c-6.7,28.1-2.7,59.2,5.8,74.7l0.4-27.7c0.3-19.2,4.9-38.1,13.5-55.3
			L373.2,227.4z"/>
		<g>
			<path class="st4" d="M344.6,307.3c0,0,0-0.3-0.1-0.8c0-0.6,0-1.4-0.1-2.4c0-1.1-0.1-2.4,0-3.9c0-1.5,0-3.2,0.2-5.1
				c0.1-0.9,0.1-1.9,0.2-3c0.1-1,0.2-2.1,0.3-3.2c0.2-2.2,0.5-4.6,0.9-7c0.8-4.9,1.9-10.3,3.5-15.9s3.5-10.7,5.4-15.4
				c1-2.3,1.9-4.5,2.9-6.5c0.5-1,0.9-2,1.4-2.9s1-1.8,1.4-2.6c0.9-1.7,1.8-3.1,2.5-4.4c0.7-1.3,1.4-2.4,2-3.3c0.6-0.9,1-1.5,1.3-2
				s0.5-0.7,0.5-0.7s-0.1,0.3-0.4,0.7c-0.3,0.5-0.7,1.2-1.3,2.1c-0.6,0.9-1.2,2-1.9,3.3c-0.7,1.3-1.6,2.8-2.4,4.5
				c-0.4,0.8-0.9,1.7-1.4,2.6c-0.5,0.9-0.9,1.9-1.4,2.9c-1,2-1.9,4.2-2.9,6.5c-1.9,4.6-3.7,9.8-5.3,15.3c-1.5,5.5-2.7,10.9-3.5,15.8
				c-0.4,2.5-0.7,4.8-0.9,7c-0.1,1.1-0.3,2.2-0.3,3.2c-0.1,1-0.1,2-0.2,3c-0.2,1.9-0.2,3.6-0.2,5.1c-0.1,1.5-0.1,2.8-0.1,3.8
				s0,1.8,0,2.4C344.6,307,344.6,307.3,344.6,307.3z"/>
		</g>
		<g>
			<path class="st4" d="M355.7,233.6c0,0-0.1,0.2-0.3,0.7c-0.2,0.5-0.5,1.1-0.9,1.8c-0.8,1.6-2,3.9-3.3,6.8c-0.6,1.5-1.4,3-2,4.8
				c-0.3,0.9-0.7,1.8-1,2.7s-0.7,1.9-1,2.9c-1.3,4-2.6,8.4-3.5,13.1c-1.9,9.5-2.3,18.3-2.3,24.6c0,3.2,0.1,5.7,0.2,7.5
				c0,0.8,0.1,1.5,0.1,2s0,0.7,0,0.7s-0.1-0.2-0.1-0.7s-0.1-1.2-0.2-2c-0.2-1.8-0.3-4.3-0.3-7.5c-0.1-6.3,0.2-15.2,2.1-24.7
				c1-4.8,2.2-9.2,3.6-13.2c0.4-1,0.7-2,1-2.9s0.7-1.8,1.1-2.7c0.7-1.7,1.4-3.3,2.1-4.8c1.4-2.9,2.5-5.2,3.4-6.7
				c0.4-0.7,0.8-1.3,1-1.8C355.6,233.8,355.7,233.6,355.7,233.6z"/>
		</g>
	</g>
	<g>
		<path class="st5" d="M451.8,236.8c0,0-16.3,44.5-4.3,82l0.7,13.3c0,0-9.2-0.6-16.2-13.8c-7-13.2-9.2-26.8-11.6-46.3
			c-2.4-19.6,8.4-44.5,8.4-44.5S447.8,231.6,451.8,236.8z"/>
		<g>
			<path class="st4" d="M448.6,331c0,0-0.1,0-0.2-0.1c-0.2-0.1-0.4-0.2-0.7-0.4c-0.6-0.4-1.4-0.9-2.3-1.9c-1.9-1.8-3.9-5.1-5.2-9.6
				c-0.7-2.2-1.2-4.7-1.6-7.4c-0.5-2.7-0.8-5.6-1.2-8.6c-0.7-6.1-1-12.8-0.9-19.9s0.8-13.8,1.7-19.9c0.9-6.1,2.1-11.5,3.4-15.9
				c1.3-4.5,2.9-7.9,4.2-10.1c0.6-1.1,1.2-2,1.6-2.5c0.2-0.3,0.3-0.5,0.5-0.6c0.1-0.1,0.2-0.2,0.2-0.2s0,0.1-0.1,0.2
				c-0.1,0.2-0.2,0.4-0.4,0.7c-0.4,0.6-0.9,1.4-1.5,2.6c-1.2,2.3-2.8,5.7-4,10.1c-1.3,4.4-2.4,9.8-3.3,15.9
				c-0.9,6-1.5,12.7-1.7,19.8c-0.2,7,0.2,13.8,0.8,19.8c0.3,3,0.7,5.9,1.1,8.6s0.9,5.2,1.5,7.4c1.2,4.5,3.2,7.7,5,9.6
				C447.3,330.4,448.6,330.9,448.6,331z"/>
		</g>
		<g>
			<path class="st4" d="M448,330.6c0,0-0.1,0-0.3-0.1c-0.2-0.1-0.5-0.2-0.8-0.3c-0.7-0.3-1.6-0.8-2.7-1.7c-2.3-1.7-5-4.8-7.4-9.1
				c-2.4-4.4-5.1-9.7-7.2-16c-2.1-6.2-3.8-13.3-4.7-20.9c-0.9-7.6-0.9-14.9-0.3-21.4c0.5-6.6,1.9-12.4,3.2-17.2
				c0.7-2.4,1.3-4.6,2-6.4c0.7-1.9,1.2-3.5,1.8-4.7c0.6-1.2,1-2.2,1.3-2.9c0.1-0.3,0.3-0.6,0.4-0.8s0.1-0.3,0.1-0.2
				c0,0,0,0.1-0.1,0.3s-0.2,0.5-0.3,0.8c-0.3,0.7-0.7,1.7-1.2,3c-0.6,1.3-1.1,2.9-1.7,4.8c-0.7,1.8-1.3,4-2,6.4
				c-1.2,4.8-2.5,10.6-3,17.2c-0.6,6.5-0.6,13.8,0.3,21.3s2.6,14.6,4.7,20.8c2,6.3,4.7,11.6,7,15.9c2.4,4.3,5,7.4,7.2,9.1
				c1.1,0.9,2,1.4,2.7,1.7c0.3,0.2,0.6,0.3,0.7,0.4C447.9,330.5,448,330.6,448,330.6z"/>
		</g>
		<g>
			<polygon class="st4" points="440.2,253.6 450.8,256.4 449.3,260.1 439.3,258.1 			"/>
			<g>
				<path class="st3" d="M440.5,257.2c-0.1-0.1,0.5-0.7,1.5-1.8l0.2-0.2l0.1,0.2c0.4,0.6,0.8,1.3,1.3,2l-0.3-0.1
					c0.4-0.2,0.8-0.4,1.2-0.7c0.4-0.2,0.8-0.5,1.2-0.7l0.2-0.1l0.1,0.2c0.4,0.7,0.8,1.4,1.1,2.1l-0.3-0.1c1.2-0.6,2-1,2.1-0.9
					c0,0.1-0.7,0.6-1.9,1.3l-0.2,0.1l-0.1-0.2c-0.4-0.7-0.8-1.3-1.2-2.1l0.3,0.1c-0.4,0.2-0.8,0.4-1.2,0.7c-0.4,0.2-0.8,0.4-1.2,0.7
					l-0.2,0.1l-0.1-0.2c-0.4-0.7-0.8-1.4-1.2-2.1h0.3C441.2,256.7,440.5,257.2,440.5,257.2z"/>
			</g>
		</g>
	</g>
	<g>
		<g>
			<polygon class="st5" points="353.4,317.2 341.9,295.9 306.8,295.9 305.6,298 335.4,347.4 369,349 			"/>
			<path class="st9" d="M487.2,328.9v37.2c0,6.8-3.1,13.2-8.3,17.5l0,0c-6.4,5.2-15.2,6.5-22.8,3.4l-81.9-36.3l8-27.3l65.9,21.7
				l-0.1-16.9L487.2,328.9z"/>
			<polygon class="st4" points="352.3,319.3 340.7,298 305.6,298 334.2,349.5 367.9,351.2 			"/>
			<path class="st9" d="M385.4,326.4l-5.6-6.9c-3.7-4.5-9.2-7.2-15-7.2H360l-3.3,3.7c0,0-23.7,1-24.6,4v0.9v0.6l20.3,1.4
				c0,0-17.3-0.1-18.3,0c-1.1,0-4.8-0.3-4.7,1.7c0.1,1.7,2,3,5,3.4c1.2,0.2,16.2,1.5,16.2,1.5s-15.7-0.2-16.5-0.2
				c-1.8,0-1.6,3-0.5,3.3c0.9,0.3,22,6.4,22,6.4s-3.5,2.4-6.4,2.2c-2.9-0.2-7.9-3.9-8.9-2.2c-1,1.8-0.8,2.8-0.2,3.2
				c0.6,0.4,7.4,3.9,9.7,4.5c2.3,0.6,20.8,3.6,20.8,3.6l6.7,1.1L385.4,326.4z"/>
			<g>
				<path class="st9" d="M310.5,306.3c0,0-3.7,1.3-1.8,6c2.7,6.9,7.4,11.8,7.4,11.8s-0.7,2.4,1.5,4.2c0,0-2.6,0.6-1,5
					c0,0-1.8,4.6,3.1,6.5c0,0-1.3,3.7,3.4,5.5c4.7,1.8,9.3-1.3,9.3-1.3L310.5,306.3z"/>
				<path class="st9" d="M318,323.7c3.3,0.9,7,1.6,10.1,2.8c1,0.4,2,0.4,2.7,1.3s0.8,2.2,0.1,3c-0.7,0.7-1.8,0.7-2.7,0.5
					c-3.6-0.4-7-1.7-10.3-2.9"/>
				<path class="st9" d="M319.3,329.3c3.3,0.9,7,1.6,10.1,2.8c1,0.4,2,0.4,2.7,1.3s0.8,2.2,0.1,3c-0.7,0.7-1.8,0.7-2.7,0.5
					c-3.6-0.4-7-1.7-10.3-2.9"/>
				<path class="st9" d="M321.2,335c3.3,0.9,7,1.6,10.1,2.8c1,0.4,2,0.4,2.7,1.3s0.8,2.2,0.1,3c-0.7,0.7-1.8,0.7-2.7,0.5
					c-3.6-0.4-7-1.7-10.3-2.9"/>
				<g>
					<path class="st10" d="M318,328.6c0.1-0.1,2.4,0.7,5.4,1.5s5.4,1.3,5.4,1.5c0,0.1-2.5-0.2-5.5-1
						C320.2,329.7,317.9,328.7,318,328.6z"/>
				</g>
				<g>
					<path class="st10" d="M317.4,333.5c0.1-0.1,2.7,0.8,6.1,1.7c3.4,1,6.1,1.7,6.1,1.8c0,0.1-2.8-0.3-6.2-1.3
						C319.9,334.7,317.3,333.6,317.4,333.5z"/>
				</g>
				<g>
					
						<ellipse transform="matrix(0.2424 -0.9702 0.9702 0.2424 -84.6623 574.0085)" class="st10" cx="325.2" cy="341.2" rx="0.3" ry="5.8"/>
				</g>
				<g>
					<path class="st10" d="M315.2,323.1c0.1-0.1,3,0.9,6.7,1.8c3.7,1,6.8,1.5,6.8,1.7c0,0.1-0.8,0-2-0.2c-1.3-0.2-3-0.5-4.8-1
						c-1.9-0.5-3.5-1-4.7-1.5C315.9,323.5,315.2,323.1,315.2,323.1z"/>
				</g>
			</g>
			<g>
				
					<ellipse transform="matrix(1 -5.281109e-03 5.281109e-03 1 -1.6655 1.8898)" class="st10" cx="357" cy="316.3" rx="8.3" ry="0.3"/>
			</g>
			<ellipse class="st1" cx="324.6" cy="305.6" rx="1.8" ry="1.8"/>
		</g>
		<g>
			<path class="st10" d="M443.8,344.2c0,0,0.3,0,0.8,0.1s1.3,0.3,2.1,0.5c1.8,0.6,4.2,1.6,6.6,3.2s4.2,3.5,5.3,5
				c0.6,0.7,1,1.4,1.3,1.8c0.3,0.5,0.4,0.7,0.4,0.7c-0.1,0-0.7-0.9-1.9-2.3c-1.2-1.4-3-3.2-5.3-4.8c-2.3-1.6-4.6-2.7-6.4-3.3
				C444.9,344.6,443.8,344.3,443.8,344.2z"/>
		</g>
	</g>
	<g>
		<g>
			<g>
				<g>
					<g>
						<g>
							<g>
								<g>
									<g>
										<g>
											<path class="st9" d="M399.1,245.6L399.1,245.6c-10.8-0.9-19-10.2-18.4-21c0.4-7.6,0.8-14.5,0.8-14.5s-16.3-2.5-16.5-18.8
												s2.6-53.7,2.6-53.7l0,0c18.9-8.1,40.6-5.4,56.9,7.2l2.4,1.9l-6.2,80.5C419.9,238.2,410.2,246.5,399.1,245.6z"/>
										</g>
									</g>
								</g>
							</g>
							<g>
								<g>
									<g>
										<g>
											<path class="st10" d="M381.4,210c0,0,10.3,0.8,21.2-6c0,0-5,11.7-21.3,10.3L381.4,210z"/>
										</g>
									</g>
								</g>
							</g>
						</g>
					</g>
				</g>
				<g>
					<g>
						<g>
							<g>
								<g>
									<g>
										<g>
											<g>
												<g>
													<g>
														<path class="st4" d="M371.6,163.2c0,1.2,1,2.3,2.2,2.3c1.3,0.1,2.4-0.9,2.4-2.1c0-1.2-1-2.3-2.2-2.3
															C372.7,161,371.6,162,371.6,163.2z"/>
													</g>
												</g>
											</g>
										</g>
										<g>
											<g>
												<g>
													<g>
														<g>
															<path class="st4" d="M370.7,160.6c0.3,0.3,2.1-1,4.6-1s4.3,1.3,4.6,1c0.1-0.1-0.2-0.7-1-1.3s-2.1-1.1-3.7-1.1
																s-2.9,0.6-3.6,1.2C370.8,159.9,370.5,160.5,370.7,160.6z"/>
														</g>
													</g>
												</g>
											</g>
										</g>
									</g>
									<g>
										<g>
											<g>
												<g>
													<g>
														<path class="st4" d="M395.2,163.8c0,1.2,1,2.3,2.2,2.3c1.3,0.1,2.4-0.9,2.4-2.1c0-1.2-1-2.3-2.2-2.3
															C396.3,161.6,395.2,162.6,395.2,163.8z"/>
													</g>
												</g>
											</g>
										</g>
										<g>
											<g>
												<g>
													<g>
														<g>
															<path class="st4" d="M395.3,161.1c0.3,0.3,2.1-1,4.6-1s4.3,1.3,4.6,1c0.1-0.1-0.2-0.7-1-1.3s-2.1-1.1-3.7-1.1
																s-2.9,0.6-3.6,1.2C395.4,160.4,395.1,160.9,395.3,161.1z"/>
														</g>
													</g>
												</g>
											</g>
										</g>
									</g>
									<g>
										<g>
											<g>
												<g>
													<g>
														<path class="st4" d="M386.2,179.6c0-0.1-1.5-0.4-4.1-0.7c-0.6-0.1-1.2-0.2-1.4-0.6c-0.2-0.5,0.1-1.2,0.4-1.9
															c0.6-1.5,1.2-3.2,1.9-4.9c2.6-6.9,4.5-12.6,4.2-12.7c-0.3-0.1-2.6,5.4-5.3,12.4c-0.6,1.7-1.2,3.3-1.8,4.9
															c-0.2,0.7-0.7,1.6-0.3,2.5c0.2,0.5,0.6,0.8,1.1,0.9c0.4,0.1,0.8,0.1,1.1,0.2C384.6,179.8,386.2,179.8,386.2,179.6z"/>
													</g>
												</g>
											</g>
										</g>
									</g>
									<g>
										<g>
											<g>
												<g>
													<g>
														<path class="st4" d="M393.5,181.4c-0.4,0-0.4,2.7-2.7,4.6c-2.3,1.9-5.2,1.6-5.2,2c0,0.2,0.6,0.5,1.9,0.6
															c1.2,0,3-0.3,4.4-1.5s2-2.8,2.1-3.9C394,182,393.7,181.3,393.5,181.4z"/>
													</g>
												</g>
											</g>
										</g>
									</g>
								</g>
							</g>
						</g>
						<g>
							<g>
								<g>
									<g>
										<path class="st4" d="M394.6,151.3c0.2,0.7,2.7,0.4,5.7,0.7c2.9,0.3,5.3,1.2,5.7,0.5c0.2-0.3-0.2-0.9-1.2-1.6
											c-0.9-0.7-2.5-1.3-4.2-1.5c-1.8-0.2-3.4,0.1-4.4,0.5C395.1,150.4,394.5,150.9,394.6,151.3z"/>
									</g>
								</g>
							</g>
						</g>
						<g>
							<g>
								<g>
									<g>
										<path class="st4" d="M371.6,153.4c0.4,0.6,2.2,0,4.2,0c2.1-0.1,3.8,0.4,4.2-0.2c0.2-0.3-0.1-0.9-0.9-1.4s-2-1-3.4-0.9
											c-1.4,0-2.7,0.6-3.4,1.1C371.6,152.5,371.4,153.1,371.6,153.4z"/>
									</g>
								</g>
							</g>
						</g>
					</g>
				</g>
			</g>
		</g>
		<g>
			<g>
				<g>
					<g>
						<g>
							<path class="st9" d="M424.9,163.6c0.3-0.1,11.2-3.3,10.8,7.8c-0.4,11.1-11.5,8.5-11.5,8.2
								C424.2,179.2,424.9,163.6,424.9,163.6z"/>
						</g>
					</g>
				</g>
			</g>
			<g>
				<g>
					<g>
						<g>
							<g>
								<path class="st10" d="M427.8,175.4c0.1,0,0.2,0.1,0.5,0.3s0.9,0.3,1.4,0.1c1.2-0.4,2.2-2.2,2.4-4.2c0.1-1-0.1-2-0.5-2.8
									c-0.3-0.8-0.8-1.4-1.4-1.5c-0.6-0.2-1,0.2-1.2,0.5s-0.1,0.5-0.2,0.5c0,0-0.2-0.2-0.1-0.7c0.1-0.2,0.2-0.5,0.5-0.7
									s0.7-0.3,1.1-0.2c0.9,0.1,1.6,0.9,2,1.8c0.4,0.9,0.6,2,0.6,3.1c-0.1,2.2-1.4,4.3-3,4.7c-0.8,0.2-1.4-0.1-1.8-0.4
									C427.8,175.7,427.7,175.5,427.8,175.4z"/>
							</g>
						</g>
					</g>
				</g>
			</g>
		</g>
		<g>
			<path class="st4" d="M361.3,123.6c2.4-4.7,7-8.1,12.1-9.1s10.7,0.5,14.6,4c2.5-4.9,7.5-8.4,12.9-9.2c5.4-0.7,11.2,1.4,14.8,5.6
				c3.1,3.5,4.7,8.3,8.4,11.3c3.2,2.6,7.5,3.4,10.6,6c3.5,2.8,5.3,7.7,4.4,12.1c-0.9,4.4-4.4,8.2-8.7,9.4c3.5,6.3,0.2,15.3-6.5,17.9
				l-1.6-0.7c-6.2-6.8-7.6-17.4-3.4-25.6c-0.2,0-0.4,0-0.6,0c-2.1,1.2-4.6,1.8-7.1,1.6c-3.9-0.2-7.6-2.3-9.9-5.5
				c-4.4,3.2-10.8,3.5-15.5,0.7c-0.7-0.4-1.5-1-2.3-1.1c-1-0.1-2,0.4-2.9,0.9c-2.4,1.2-5.2,2-7.9,1.6c-2.5-0.4-4.9-1.9-5.9-4.2
				c-0.1,0-0.1,0-0.2,0c-3.1-0.6-5.7-3.2-6.5-6.3C359.3,129.8,359.9,126.5,361.3,123.6z"/>
		</g>
	</g>
</g>
</svg>
