<svg xmlns="http://www.w3.org/2000/svg" enable-background="new 0 0 110 110" viewBox="0 0 110 110" width="256" height="256"><path fill="#f5f5f5" d="M103.0003128,34.6270599c0.0160675,4.6444473-1.8505478,8.763031-4.8812714,12.2995529
    c-4.2470398,4.9454842-9.8629227,8.1247597-15.1977997,11.6492233c-0.9623642,0.6357956-4.4921494,2.5553131-6.3938217,3.5806351
    c-0.6198654,0.3342133-1.2329712,0.6788025-1.8196487,1.0683479c-2.5661621,1.7038765-5.4480515,2.7042046-8.3853073,3.5279655
    c-8.3214531,2.3362503-16.5867271,1.6417999-24.7716866-0.7185135
    c-6.9445801-2.0030823-13.7928486-4.3634682-20.2476826-7.5989227c-7.4704428-3.7492828-12.4480743-9.7826309-13.993536-18.10009
    c-0.9312997-5.0297928,0.236825-9.8107338,3.5686154-13.9012165c2.0793591-2.5530319,4.6043139-4.4919033,7.6350384-5.7804508
    c2.0914135-0.8871479,3.9379406-2.3242435,6.2180099-2.7938995l11.1996593-4.7126799
    c0,0,13.030117-6.0534382,19.5692825-6.5471783c6.5511971-0.4937401,12.7009468,0.9072156,18.8266335,2.8059301
    c5.7844925,1.7943649,11.5609512,3.6810246,16.8797836,6.5873346
    C98.5044174,19.9751892,102.9641953,26.0446758,103.0003128,34.6270599z" ></path><path fill="#ffffff" d="M81.104538,20.3958092c-0.0157852-1.48703-1.2246933-2.6878262-2.7154465-2.6878262
    c-0.354187,0-0.6944046,0.0699158-1.0066376,0.1957245c-0.493988-1.8128281-2.1483841-3.1503544-4.1196747-3.1503544
    c-2.1157837,0-3.8727188,1.5379162-4.2082443,3.5511608c-0.4613647-0.3728466-1.0532303-0.5965309-1.6963501-0.5965309
    c-1.4907532,0-2.6996536,1.2007961-2.7154465,2.6878262H81.104538z" ></path><path fill="#5aa7f5" d="M92.1118774,34.550621v42.1499023c0,2.3803711-1.9100342,4.3100586-4.3000488,4.3100586H16.6318359
    c-2.3699942,0-4.2999868-1.9296875-4.2999868-4.3100586V34.550621c0-2.3701172,1.9299927-4.3100605,4.2999868-4.3100605
    h71.1799927C90.2018433,30.2405605,92.1118774,32.1805038,92.1118774,34.550621z" ></path><path fill="#ffffff" d="M31.7835579 73.7072144H22.784029c-1.0148888 0-1.8361263-.8212357-1.8361263-1.8361206 0-1.0148926.8212376-1.8361282 1.8361263-1.8361282h8.9995289c1.0148888 0 1.8361282.8212357 1.8361282 1.8361282C33.6196861 72.8859787 32.7984467 73.7072144 31.7835579 73.7072144zM48.5417976 73.7072144h-8.9995308c-1.0148888 0-1.8361244-.8212357-1.8361244-1.8361206 0-1.0148926.8212357-1.8361282 1.8361244-1.8361282h8.9995308c1.0148888 0 1.8361244.8212357 1.8361244 1.8361282C50.3779221 72.8859787 49.5566864 73.7072144 48.5417976 73.7072144zM65.3000336 73.7072144h-8.999527c-1.0148926 0-1.8361282-.8212357-1.8361282-1.8361206 0-1.0148926.8212357-1.8361282 1.8361282-1.8361282h8.999527c1.0148926 0 1.8361282.8212357 1.8361282 1.8361282C67.1361618 72.8859787 66.3149261 73.7072144 65.3000336 73.7072144zM82.0582733 73.7072144h-8.999527c-1.0148926 0-1.8361282-.8212357-1.8361282-1.8361206 0-1.0148926.8212357-1.8361282 1.8361282-1.8361282h8.999527c1.0148849 0 1.8361282.8212357 1.8361282 1.8361282C83.8944016 72.8859787 83.0731583 73.7072144 82.0582733 73.7072144z" ></path><rect width="79.78" height="9.34" x="12.332" y="38.461" fill="#ffffff" ></rect><path fill="none" d="M31.7835579 73.7072144H22.784029c-1.0148888 0-1.8361263-.8212357-1.8361263-1.8361206 0-1.0148926.8212376-1.8361282 1.8361263-1.8361282h8.9995289c1.0148888 0 1.8361282.8212357 1.8361282 1.8361282C33.6196861 72.8859787 32.7984467 73.7072144 31.7835579 73.7072144zM48.5417976 73.7072144h-8.9995308c-1.0148888 0-1.8361244-.8212357-1.8361244-1.8361206 0-1.0148926.8212357-1.8361282 1.8361244-1.8361282h8.9995308c1.0148888 0 1.8361244.8212357 1.8361244 1.8361282C50.3779221 72.8859787 49.5566864 73.7072144 48.5417976 73.7072144zM65.3000336 73.7072144h-8.999527c-1.0148926 0-1.8361282-.8212357-1.8361282-1.8361206 0-1.0148926.8212357-1.8361282 1.8361282-1.8361282h8.999527c1.0148926 0 1.8361282.8212357 1.8361282 1.8361282C67.1361618 72.8859787 66.3149261 73.7072144 65.3000336 73.7072144zM82.0582733 73.7072144h-8.999527c-1.0148926 0-1.8361282-.8212357-1.8361282-1.8361206 0-1.0148926.8212357-1.8361282 1.8361282-1.8361282h8.999527c1.0148849 0 1.8361282.8212357 1.8361282 1.8361282C83.8944016 72.8859787 83.0731583 73.7072144 82.0582733 73.7072144z"></path><path fill="#41a700" d="M48.5678978,58.4607773v6.7099609c0,0.7397461-0.5899658,1.3398438-1.3300171,1.3398438H22.2779198
    c-0.7300415,0-1.3300171-0.6000977-1.3300171-1.3398438v-6.7099609c0-0.7299805,0.5999756-1.3300781,1.3300171-1.3300781
    h24.9599609C47.977932,57.1306992,48.5678978,57.7307968,48.5678978,58.4607773z" ></path><circle cx="82.095" cy="82.727" r="19.773" fill="#ffd8a0" ></circle><path fill="#ffc777" d="M101.8715973,82.7236404c0,10.9209976-8.8535461,19.774765-19.7747574,19.774765
    c-4.2355347,0-8.1431046-1.3298264-11.3584747-3.5887375c2.4866943,1.1385727,5.2556915,1.7670135,8.1704559,1.7670135
    c10.9212189,0,19.774765-8.8537674,19.774765-19.774765c0-6.6949158-3.3246155-12.6061783-8.4163513-16.1860199
    C97.107811,67.8216324,101.8715973,74.7171326,101.8715973,82.7236404z" ></path><circle cx="82.095" cy="82.727" r="14.682" fill="#ffffff" ></circle><polygon fill="#ffc777" points="82.095 72.586 84.372 79.593 91.74 79.593 85.779 83.924 88.056 90.931 82.095 86.6 76.134 90.931 78.411 83.924 72.45 79.593 79.818 79.593" ></polygon><circle cx="24.542" cy="32.525" r="16.413" fill="#ffd8a0" ></circle>
    <path fill="#ffc777"
        d="M40.9579697,32.5219994c0,9.0650253-7.3489304,16.4141388-16.4141407,16.4141388
    c-3.5157185,0-6.7592201-1.1038246-9.4281521-2.9788513c2.0640888,0.9450798,4.3625088,1.4667206,6.7819252,1.4667206
    c9.0652122,0,16.4141388-7.3491135,16.4141388-16.4141388c0-5.5571499-2.7596092-10.4638195-6.9860306-13.4352875
    C37.0037651,20.1525116,40.9579697,25.8761578,40.9579697,32.5219994z"
        ></path>
    <circle cx="24.542" cy="32.525" r="12.187" fill="#ffffff" ></circle>
    <polygon fill="#ffc777"
        points="24.542 24.107 26.432 29.923 32.548 29.923 27.6 33.518 29.49 39.334 24.542 35.74 19.594 39.334 21.484 33.518 16.537 29.923 22.652 29.923"
        ></polygon>
    <path fill="#092d4b"
        d="M103 101.5H90.9923096c7.0178833-3.3408203 11.8762207-10.4995117 11.8762207-18.7783203 0-7.4101563-3.9000244-13.9299316-9.7600098-17.5998535V34.5517578c0-2.9299297-2.3699951-5.3100567-5.2999878-5.3100567H41.6484985c-1.539978-8.0400391-8.6199951-14.1298828-17.1099854-14.1298828-9.5999756 0-17.4099731 7.8100586-17.4099731 17.4099102 0 4.3200684 1.5799561 8.2700195 4.1999512 11.3200684v32.8598633c0 2.9301758 2.3800049 5.3100586 5.3000488 5.3100586H61.338501c-.0199585.2402344-.0199585.4702148-.0199585.7099609 0 8.2788086 4.8583374 15.4375 11.8861694 18.7783203H14.5097656c-.5527344 0-1 .4472656-1 1s.4472656 1 1 1c9.9535522 0 74.5575943 0 88.4902344 0 .5527344 0 1-.4472656 1-1S103.5527344 101.5 103 101.5zM9.12854 32.5217285c0-8.4999981 6.9099731-15.4099102 15.4099731-15.4099102 8.4674034 0 15.4199829 6.8787403 15.4199829 15.4099102 0 8.5-6.9199829 15.420166-15.4199829 15.420166C16.021946 47.9418945 9.12854 40.9947472 9.12854 32.5217285zM16.62854 80.0117188c-1.8200073 0-3.3000488-1.4902344-3.3000488-3.3100586v-30.869873c3.0300293 2.5700684 6.9400024 4.1101074 11.210022 4.1101074 9.9997787 0 18.1007996-8.480793 17.3699951-18.7001934h45.9000244c1.8200073 0 3.2999878 1.4799786 3.2999878 3.3100567v29.4599609c-2.7299805-1.3198242-5.789978-2.0600586-9.0100098-2.0600586-10.539978 0-19.2700195 7.880127-20.5999756 18.0600586H16.62854zM63.3185425 82.7216797c0-.2397461 0-.4799805.0099487-.7099609.0300293-.6801758.0900269-1.3500977.1900024-2 1.3099976-9.0698242 9.1400146-16.0600586 18.5800171-16.0600586 10.3149261 0 18.7700195 8.3892441 18.7700195 18.7700195 0 10.3466797-8.399353 18.7573242-18.7314453 18.7783203h-.0771484C71.7178345 101.4790039 63.3185425 93.0683594 63.3185425 82.7216797zM10.65625 101.5H7c-.5527344 0-1 .4472656-1 1s.4472656 1 1 1h3.65625c.5527344 0 1-.4472656 1-1S11.2089844 101.5 10.65625 101.5z"
        ></path>
</svg>