<svg xmlns="http://www.w3.org/2000/svg" enable-background="new 0 0 520 520" viewBox="0 0 520 520" width="50"><path fill="#d0dce7" d="M391.5 294.755h-240c-2.761 0-5-2.238-5-5s2.239-5 5-5h240c2.761 0 5 2.238 5 5S394.261 294.755 391.5 294.755zM391.5 254.755h-260c-2.761 0-5-2.239-5-5s2.239-5 5-5h260c2.761 0 5 2.239 5 5S394.261 254.755 391.5 254.755zM391.5 334.755h-220c-2.761 0-5-2.238-5-5s2.239-5 5-5h220c2.761 0 5 2.238 5 5S394.261 334.755 391.5 334.755z" class="colord0dce7 svgShape"></path><path fill="#d0dce7" d="M261.503 374.756c-1.877 0-3.676-1.062-4.527-2.872l-80-170c-1.176-2.499-.104-5.477 2.395-6.653 2.5-1.177 5.477-.104 6.653 2.395l80 170c1.175 2.499.103 5.478-2.396 6.653C262.94 374.603 262.216 374.756 261.503 374.756zM211.503 374.756c-1.877 0-3.676-1.062-4.528-2.872l-80-170c-1.176-2.499-.104-5.477 2.395-6.653 2.5-1.177 5.477-.104 6.653 2.395l80 170c1.175 2.499.103 5.478-2.396 6.653C212.941 374.603 212.216 374.756 211.503 374.756zM311.503 374.756c-1.877 0-3.676-1.062-4.527-2.872l-80-170c-1.176-2.499-.104-5.477 2.395-6.653 2.5-1.177 5.477-.104 6.653 2.395l80 170c1.175 2.499.103 5.478-2.396 6.653C312.94 374.603 312.216 374.756 311.503 374.756zM361.503 374.756c-1.877 0-3.676-1.062-4.527-2.872l-80-170c-1.176-2.499-.104-5.477 2.396-6.653 2.5-1.177 5.477-.104 6.652 2.395l80.001 170c1.175 2.499.103 5.478-2.396 6.653C362.94 374.603 362.216 374.756 361.503 374.756z" class="colord0dce7 svgShape"></path><path fill="#a0b5c5" d="M391.5,374.755H118.32c-1.965,0-3.748-1.15-4.556-2.941l-76.82-170
    c-0.699-1.547-0.565-3.344,0.355-4.771c0.921-1.427,2.502-2.289,4.201-2.289h350c2.761,0,5,2.239,5,5v170
    C396.5,372.517,394.261,374.755,391.5,374.755z M121.547,364.755H386.5v-160H49.246L121.547,364.755z" class="colora0b5c5 svgShape"></path><path fill="#c86d36" d="M447.55,473.755H91.5c-2.761,0-5-2.238-5-5s2.239-5,5-5h356.05c2.761,0,5,2.238,5,5
    S450.311,473.755,447.55,473.755z" class="colorc86d36 svgShape"></path><path fill="#a0b5c5" d="M141.94 418.655H63.45c-2.761 0-5-2.238-5-5s2.239-5 5-5h78.49c2.761 0 5 2.238 5 5S144.701 418.655 141.94 418.655zM302.56 418.655H182.5c-2.761 0-5-2.238-5-5s2.239-5 5-5h120.06c2.762 0 5 2.238 5 5S305.321 418.655 302.56 418.655zM392.68 418.655h-49.57c-2.761 0-5-2.238-5-5s2.239-5 5-5h49.57c9.347 0 16.95-7.604 16.95-16.95 0-4.526-1.764-8.782-4.966-11.985-3.202-3.201-7.458-4.965-11.984-4.965h-1.18c-2.762 0-5-2.238-5-5s2.238-5 5-5h1.18c7.197 0 13.965 2.804 19.056 7.894 5.091 5.093 7.895 11.86 7.895 19.057C419.63 406.565 407.54 418.655 392.68 418.655z" class="colora0b5c5 svgShape"></path><path fill="#57606f" d="M361.5 436.575c0 21.35-17.311 38.67-38.67 38.67-21.351 0-38.66-17.32-38.66-38.67 0-21.497 17.48-38.67 38.66-38.67C344.042 397.905 361.5 415.105 361.5 436.575zM182.5 403.655c11.03 6.819 18.38 19 18.38 32.92 0 21.35-17.31 38.67-38.66 38.67-21.36 0-38.67-17.32-38.67-38.67 0-21.417 17.409-38.67 38.67-38.67 7.43 0 14.38 2.109 20.27 5.75H182.5z" class="color57606f svgShape"></path><path fill="#59d9a4" d="M413.5 44.755c13.81 0 25 11.19 25 25s-11.19 25-25 25c-13.811 0-25-11.19-25-25S399.689 44.755 413.5 44.755zM83.5 119.755c11.05 0 20 8.95 20 20s-8.95 20-20 20-20-8.95-20-20S72.45 119.755 83.5 119.755z" class="color59d9a4 svgShape"></path><path fill="#7d89aa" d="M327.38 429.195c2.47 1.529 4.12 4.26 4.12 7.38 0 4.79-3.88 8.67-8.67 8.67-4.78 0-8.66-3.88-8.66-8.67 0-3.12 1.649-5.851 4.12-7.38 1.319-.82 2.88-1.29 4.54-1.29C324.5 427.905 326.06 428.385 327.38 429.195zM166.76 429.195c2.48 1.529 4.12 4.26 4.12 7.38 0 4.79-3.88 8.67-8.66 8.67-4.79 0-8.67-3.88-8.67-8.67 0-3.12 1.65-5.851 4.12-7.38 1.32-.82 2.88-1.29 4.55-1.29C163.88 427.905 165.44 428.385 166.76 429.195z" class="color7d89aa svgShape"></path><circle cx="441" cy="352.255" r="7.5" fill="#95e6f9" class="color95e6f9 svgShape"></circle><circle cx="426" cy="237.255" r="7.5" fill="#95e6f9" class="color95e6f9 svgShape"></circle><circle cx="336" cy="52.255" r="7.5" fill="#95e6f9" class="color95e6f9 svgShape"></circle><circle cx="331" cy="147.255" r="7.5" fill="#95e6f9" class="color95e6f9 svgShape"></circle><circle cx="116" cy="67.255" r="7.5" fill="#95e6f9" class="color95e6f9 svgShape"></circle><circle cx="51" cy="357.255" r="7.5" fill="#95e6f9" class="color95e6f9 svgShape"></circle><path fill="#a0b5c5" d="M118.32 374.755H96.37c-2.761 0-5-2.238-5-5s2.239-5 5-5h21.95c2.761 0 5 2.238 5 5S121.081 374.755 118.32 374.755zM391.5 204.755c-2.762 0-5-2.239-5-5v-50c0-2.761 2.238-5 5-5h32c2.761 0 5 2.239 5 5s-2.239 5-5 5h-27v45C396.5 202.516 394.261 204.755 391.5 204.755z" class="colora0b5c5 svgShape"></path><path fill="#68ca44" d="M278,112.505l-0.002,0.001c-14.822-35.042-55.68-52.49-91.748-37.251l0.001,0.001
    c-25.246,10.679-42.751,35.75-42.751,64.499c0,38.66,31.34,70,70,70s70-31.34,70-70C283.5,130.855,281.743,121.365,278,112.505z" class="color68ca44 svgShape"></path><path fill="#d0dce7" d="M290.3,82.525c4.88,4.88,4.88,12.8,0,17.68c-6.688,6.688-68.7,68.7-79.55,79.55
    c-12.363-12.363-23.486-23.486-33.59-33.59c-4.852-4.852-4.909-12.75,0-17.68c4.88-4.88,12.8-4.88,17.68,0l15.91,15.91
    c9.169-9.169,54.163-54.163,61.87-61.87c2.439-2.44,5.64-3.66,8.84-3.66S287.859,80.085,290.3,82.525z" class="colord0dce7 svgShape"></path>
    <path fill="#57606f"
        d="M463.5,129.755c11.05,0,20,8.95,20,20c0,5.52-2.24,10.52-5.86,14.14
    c-3.62,3.62-8.62,5.86-14.14,5.86h-20c-11.05,0-20-8.95-20-20s8.95-20,20-20H463.5z"
        class="color57606f svgShape"></path>
</svg>