<svg xmlns="http://www.w3.org/2000/svg" enable-background="new 0 0 100 100" viewBox="0 0 100 100" width="45">
	<path
		d="M75.633,48.744c-7.732,0-14.197,5.515-15.674,12.817l-6.377-2.357l-1.828-5.502c4.827-3.313,7.474-10.398,10.146-21.733
	c0.285-0.003,0.567-0.08,0.815-0.232c0.393-0.24,0.664-0.638,0.743-1.092l0.572-3.297c0.004-0.024,0.008-0.048,0.011-0.073
	c0.228-1.808,0.193-3.408-0.109-4.893c-1.582-7.803-9.044-13.14-18.75-13.57c-0.317-0.014-0.633-0.028-0.952-0.035
	c-0.106-0.002-0.211-0.012-0.316-0.012c-0.445,0-0.893,0.021-1.341,0.053c-8.944,0.493-16.43,5.857-18.451,13.4
	c-0.494,1.847-0.603,3.901-0.319,6.104l0.267,2.073c0.104,0.818,0.829,1.412,1.639,1.396c0.03-0.001,0.096-0.003,0.176-0.007
	c2.688,11.443,5.336,18.585,10.181,21.917l-1.835,5.503l-16.957,6.269c-0.032,0.012-0.062,0.024-0.094,0.038
	c-4.049,1.795-7.495,3.659-8.641,8.316c-0.403,1.666-0.023,6.89,0.671,14.221c0.081,0.86,0.139,1.454,0.146,1.586
	c0,0.884,0.717,1.601,1.601,1.601h65.898c0.855,0,1.56-0.707,1.601-1.561c0.008-0.172,0.066-0.768,0.148-1.63
	c0.282-2.96,0.51-5.567,0.658-7.745c7.074-1.65,12.364-7.993,12.364-15.562C91.626,55.919,84.451,48.744,75.633,48.744z
	 M79.431,76.952c-0.522,0.163-1.063,0.28-1.612,0.375c-0.525,0.091-1.06,0.147-1.605,0.172c-0.194,0.008-0.385,0.029-0.581,0.029
	c-6.605,0-12.055-5.032-12.721-11.463c-0.046-0.437-0.07-0.879-0.07-1.328c0-0.134,0.016-0.264,0.02-0.396
	c0.017-0.56,0.071-1.109,0.159-1.648c0.983-6.082,6.256-10.746,12.612-10.746c7.053,0,12.791,5.738,12.791,12.791
	C88.424,70.468,84.635,75.331,79.431,76.952z M75.415,87.74c-0.009,0.103-0.019,0.201-0.027,0.293h-12.85l0.763-7.741
	c0.087-0.88-0.556-1.663-1.436-1.75c-0.874-0.091-1.663,0.556-1.75,1.436l-0.795,8.055H27.206l-0.795-8.055
	c-0.086-0.88-0.868-1.527-1.75-1.436c-0.88,0.087-1.523,0.87-1.437,1.75l0.764,7.741H12.424c-0.008-0.09-0.017-0.185-0.026-0.286
	c-0.733-7.751-0.984-12.181-0.747-13.161c0.735-2.987,2.688-4.309,6.782-6.127l17.007-6.288l0,0l2.857,1.319
	c0.439,0.198,0.888,0.371,1.343,0.52c0.163,0.054,0.331,0.088,0.497,0.135c0.293,0.084,0.585,0.174,0.883,0.238
	c0.202,0.043,0.407,0.066,0.612,0.101c0.264,0.045,0.527,0.097,0.794,0.126c0.218,0.024,0.437,0.026,0.656,0.039
	c0.255,0.015,0.509,0.039,0.764,0.04c0.282,0.001,0.563-0.02,0.845-0.036c0.183-0.01,0.365-0.01,0.548-0.027
	c0.301-0.03,0.599-0.083,0.899-0.132c0.162-0.027,0.325-0.042,0.486-0.074c0.334-0.067,0.664-0.16,0.994-0.252
	c0.124-0.035,0.25-0.058,0.372-0.096c0.451-0.14,0.897-0.304,1.336-0.492l3.049-1.407l7.273,2.687
	c0.067,8.762,7.209,15.871,15.987,15.871c0.131,0,0.257-0.017,0.388-0.02C75.881,82.627,75.68,84.967,75.415,87.74z M26.979,27.913
	c-0.23-1.788-0.15-3.425,0.236-4.867c1.669-6.224,8.006-10.647,15.609-11.037c0.362-0.019,0.724-0.038,1.091-0.038
	c0.348,0,0.686,0.019,1.027,0.032c8.254,0.335,14.566,4.67,15.853,11.015c0.229,1.128,0.253,2.378,0.074,3.82l-0.247,1.421
	c-0.364-0.13-0.737-0.271-1.091-0.412c-0.432-0.173-0.833-0.345-1.132-0.503c-2.954-1.554-4.943-3.227-7.604-6.393
	c-0.003-0.004-0.007-0.007-0.01-0.01c-0.005-0.006-0.008-0.013-0.013-0.019l-1.853-2.107c-0.584-0.663-1.596-0.729-2.26-0.144
	c-0.664,0.584-0.729,1.596-0.145,2.26l0.971,1.103c-3.864,4.129-13.356,5.838-19.089,6.37c-0.473,0.044-0.923,0.081-1.339,0.109
	L26.979,27.913z M49.599,24.449c2.371,2.606,4.475,4.238,7.31,5.729c0.529,0.278,1.233,0.57,1.928,0.834
	c-3.051,12.935-5.689,18.422-9.738,20.56c-2.067,1.042-4.101,0.876-4.148,0.872c-0.877-0.093-1.659,0.55-1.751,1.427
	c-0.091,0.879,0.547,1.667,1.427,1.759c0.034,0.003,0.284,0.028,0.692,0.028c0.757,0,2.06-0.089,3.529-0.547l1.486,4.475
	l-2.312,1.068c-2.678,1.148-5.744,1.119-8.398-0.076l-2.146-0.991l1.404-4.211c0.389,0.189,0.569,0.229,0.664,0.249l0.661-3.133
	c0,0,0.05,0,0.165,0.046c-0.016-0.007-0.393-0.157-1.511-0.884c-0.019-0.012-0.039-0.019-0.058-0.03
	c-0.023-0.014-0.044-0.031-0.068-0.043c-3.992-2.104-6.612-7.473-9.613-20.034C34.471,31.018,44.688,29.386,49.599,24.449z
	 M82.031,64.738c0,0.884-0.717,1.601-1.601,1.601h-3.197v3.196c0,0.091-0.012,0.18-0.027,0.267
	c-0.097,0.578-0.503,1.046-1.043,1.236c-0.167,0.059-0.343,0.097-0.53,0.097c-0.884,0-1.601-0.717-1.601-1.601V69.08v-1.904v-0.837
	h-1.537h-1.66c-0.795,0-1.45-0.581-1.575-1.34c-0.014-0.085-0.026-0.172-0.026-0.261c0-0.884,0.717-1.601,1.601-1.601h3.197V59.94
	c0-0.884,0.717-1.601,1.601-1.601c0.884,0,1.601,0.717,1.601,1.601v3.197h3.197C81.314,63.137,82.031,63.853,82.031,64.738z"
		fill="#fff" ></path>
</svg>