<svg xmlns="http://www.w3.org/2000/svg" viewBox="0 0 60 60" width="50">
    <path
        d="M30 30.251c3.48 0 6.313-2.831 6.313-6.312S33.48 17.626 30 17.626s-6.313 2.832-6.313 6.313S26.52 30.251 30 30.251zm0-10.625c2.378 0 4.313 1.935 4.313 4.313S32.377 28.251 30 28.251s-4.313-1.934-4.313-4.312 1.935-4.313 4.313-4.313z"
        fill="#fff"></path>
    <path
        d="M54 40.133h-2.831V15.631a3.359 3.359 0 0 0-3.35-3.36h-35.64a3.359 3.359 0 0 0-3.35 3.36v24.502H6a1 1 0 0 0-1 1 6.602 6.602 0 0 0 6.595 6.596h36.81A6.603 6.603 0 0 0 55 41.133a1 1 0 0 0-1-1zm-15.036-.002H21.035v-1.777a4.107 4.107 0 0 1 4.103-4.103h9.723a4.107 4.107 0 0 1 4.103 4.103v1.777zm-28.135-24.5c0-.75.606-1.36 1.35-1.36h35.64c.744 0 1.35.61 1.35 1.36v24.5h-8.205v-1.777a6.11 6.11 0 0 0-6.103-6.103h-9.723a6.11 6.11 0 0 0-6.103 6.103v1.777H10.83v-24.5zM48.404 45.73h-36.81a4.603 4.603 0 0 1-4.485-3.596h45.782a4.604 4.604 0 0 1-4.487 3.596z"
        fill="#fff"></path>
</svg>