<svg xmlns="http://www.w3.org/2000/svg" viewBox="0 0 3813.856 3870.492" width="50">
    <path fill="#79a1e8" d="M713.184 2554.951C-400.919 2644.998-132.748 392.352 984.823 373.086c1462.035-25.204 1716.22-585.312 2216.752-284.595 587.668 353.067 382.132 794.722-86.104 1987.862-408.327 1040.485-1065.867 370.583-2402.287 478.598z"></path>
    <path fill="#ffffff" d="M980.565 1054.19h1023.411v2408.478H980.565z"></path>
    <path fill="#cfddf7" d="M980.565 2543.661v919.006h1023.41V1520.25z"></path>
    <path fill="#473cba" d="M1905.541 1054.19h407.825v2408.478h-407.825z"></path>
    <path fill="#7693dd" d="M1162.774 1336.333h235.974v133.377h-235.974z"></path>
    <path fill="#4b31aa" d="M1398.751 1500.489h-235.977c-16.998 0-30.779-13.781-30.779-30.779v-133.374c0-16.998 13.781-30.779 30.779-30.779h235.977c16.998 0 30.779 13.782 30.779 30.779v133.374c0 16.998-13.781 30.779-30.779 30.779zm-205.198-61.558h174.418v-71.816h-174.418v71.816z"></path>
    <path fill="#7693dd" d="M1162.774 1662.08h235.974v133.377h-235.974z"></path>
    <path fill="#4b31aa" d="M1398.751 1826.234h-235.977c-16.998 0-30.779-13.781-30.779-30.779V1662.08c0-16.998 13.781-30.779 30.779-30.779h235.977c16.998 0 30.779 13.781 30.779 30.779v133.374c0 16.998-13.781 30.78-30.779 30.78zm-205.198-61.559h174.418v-71.816h-174.418v71.816z"></path>
    <path fill="#7693dd" d="M1188.325 2929.16h489.903v533.507h-489.903zM1492.27 1336.333h235.974v133.377H1492.27z"></path>
    <path fill="#4b31aa" d="M1728.245 1500.489h-235.977c-16.998 0-30.779-13.781-30.779-30.779v-133.374c0-16.998 13.782-30.779 30.779-30.779h235.977c16.998 0 30.779 13.782 30.779 30.779v133.374c0 16.998-13.781 30.779-30.779 30.779zm-205.197-61.558h174.418v-71.816h-174.418v71.816z"></path>
    <path fill="#7693dd" d="M1492.27 1662.08h235.974v133.377H1492.27z"></path>
    <path fill="#4b31aa" d="M1728.245 1826.234h-235.977c-16.998 0-30.779-13.781-30.779-30.779V1662.08c0-16.998 13.782-30.779 30.779-30.779h235.977c16.998 0 30.779 13.781 30.779 30.779v133.374c0 16.998-13.781 30.78-30.779 30.78zm-205.197-61.559h174.418v-71.816h-174.418v71.816z"></path>
    <path fill="#7693dd" d="M1442.353 838.735h541.202v215.455h-541.202z"></path>
    <path fill="#d7ecf9" d="M1280.761 838.735h541.202v215.455h-541.202z"></path>
    <path fill="#4b31aa" d="M2313.367 1023.41h-299.031V838.735c0-16.998-13.781-30.779-30.779-30.779h-702.798c-16.998 0-30.779 13.782-30.779 30.779v184.676H980.563c-16.998 0-30.779 13.782-30.779 30.779v2408.478c0 16.998 13.781 30.779 30.779 30.779h1332.804c16.998 0 30.779-13.782 30.779-30.779V1054.19c0-16.998-13.781-30.78-30.779-30.78zm-460.622-153.896h100.033v153.896H1852.745V869.514zm-541.207 0h479.648v153.896h-479.649V869.514zm90.962 2562.374h-183.398v-471.946H1402.5v471.946zm244.95 0h-183.391v-471.946h183.391v471.946zm227.312 0h-165.754v-502.726c0-16.998-13.781-30.779-30.779-30.779h-489.906c-16.998 0-30.779 13.782-30.779 30.779v502.726h-146.201V1084.969h863.42v2346.919zm407.826 0h-346.267V1084.969h346.267v2346.919z"></path>
    <ellipse cx="552.243" cy="3769.97" fill="#473cba" rx="294.187" ry="50.016"></ellipse>
    <ellipse cx="2867.211" cy="3820.476" fill="#473cba" rx="697.273" ry="50.016"></ellipse>
    <path fill="#ffffff" d="M2654.188 1336.333h866.833v2126.334h-866.833z"></path>
    <path fill="#cfddf7" d="M2654.188 2424.39v1038.277h866.833V1557.558z"></path>
    <path fill="#79a1e8" d="M3437.646 1336.333h345.43v2126.334h-345.43z"></path>
    <path fill="#4b31aa" d="M3783.077 3493.447c16.998 0 30.779-13.782 30.779-30.779V1336.335c0-16.998-13.781-30.779-30.779-30.779H2654.186c-16.998 0-30.779 13.782-30.779 30.779v2126.332c0 16.998 13.781 30.779 30.779 30.779h1128.891zM2684.965 1367.115h721.9v2064.773h-721.9V1367.115zm1067.332 2064.773h-283.874V1367.115h283.874v2064.773z"></path>
    <path fill="#7693dd" d="M2809.157 1973.267h453.445v133.377h-453.445z"></path>
    <path fill="#4b31aa" d="M3262.602 2137.423h-453.446c-16.998 0-30.779-13.781-30.779-30.779V1973.27c0-16.998 13.781-30.779 30.779-30.779h453.446c16.998 0 30.779 13.781 30.779 30.779v133.374c0 16.997-13.781 30.779-30.779 30.779zm-422.666-61.558h391.887v-71.816h-391.887v71.816z"></path>
    <path fill="#7693dd" d="M2809.157 1650.085h453.445v133.377h-453.445z"></path>
    <path fill="#4b31aa" d="M3262.602 1814.241h-453.446c-16.998 0-30.779-13.782-30.779-30.779v-133.374c0-16.998 13.781-30.779 30.779-30.779h453.446c16.998 0 30.779 13.781 30.779 30.779v133.374c0 16.997-13.781 30.779-30.779 30.779zm-422.666-61.559h391.887v-71.816h-391.887v71.816z"></path>
    <path fill="#ffffff" d="M2191.7 2282.896h1023.41v1326.802H2191.7z"></path>
    <path fill="#cfddf7" d="M2191.7 3564.022v45.676h1023.41V2540.612z"></path>
    <path fill="#473cba" d="M3116.676 2282.896h407.825v1326.802h-407.825z"></path>
    <path fill="#7693dd" d="M2344.629 2488.82h597.631v133.377h-597.631z"></path>
    <path fill="#4b31aa" d="M2942.26 2652.976h-597.633c-16.998 0-30.779-13.781-30.779-30.779v-133.374c0-16.998 13.782-30.779 30.779-30.779h597.633c16.998 0 30.779 13.781 30.779 30.779v133.374c.001 16.997-13.781 30.779-30.779 30.779zm-566.854-61.559h536.075v-71.816h-536.075v71.816z"></path>
    <path fill="#7693dd" d="M2344.629 2735.054h597.631v133.377h-597.631z"></path>
    <path fill="#4b31aa" d="M2942.26 2899.21h-597.633c-16.998 0-30.779-13.781-30.779-30.779v-133.374c0-16.998 13.782-30.779 30.779-30.779h597.633c16.998 0 30.779 13.781 30.779 30.779v133.374c.001 16.997-13.781 30.779-30.779 30.779zm-566.854-61.559h536.075v-71.816h-536.075v71.816z"></path>
    <path fill="#f9d015" d="M2505.737 3076.191h275.415v533.507h-275.415z"></path>
    <path fill="#ddb510" d="M2505.737 3470.571v139.127h275.415v-414.542z"></path>
    <path fill="#4b31aa" d="M3524.504 2252.116H2191.7c-16.998 0-30.779 13.781-30.779 30.779v1326.8c0 16.998 13.781 30.779 30.779 30.779h1332.804c16.998 0 30.779-13.781 30.779-30.779v-1326.8c0-16.997-13.782-30.779-30.779-30.779zm-987.987 1326.8V3106.97h213.854v471.946h-213.854zm549.382 0h-273.97V3076.19c0-16.998-13.781-30.779-30.779-30.779h-275.413c-16.998 0-30.779 13.781-30.779 30.779v502.726h-252.479V2313.675h863.42v1265.241zm407.826 0h-346.267V2313.675h346.267v1265.241z"></path>
    <path fill="#f7931e" d="M421.507 2854.777H713.91v607.891H421.507z"></path>
    <circle cx="573.568" cy="2539.069" r="538.637" fill="#e1f0fa"></circle>
    <path fill="#b6cfdd" d="M939.298 2143.758 178.256 2904.8c98.391 106.296 239.046 172.906 395.312 172.906 297.481 0 538.637-241.156 538.637-538.637 0-156.266-66.61-296.921-172.907-395.311z"></path>
    <path fill="#4b31aa" d="M1142.981 2539.071c0-313.977-255.439-569.416-569.416-569.416S4.148 2225.094 4.148 2539.071c0 250.025 162.051 462.772 386.582 539.13v384.466c0 16.998 13.782 30.779 30.779 30.779h292.403c16.998 0 30.779-13.782 30.779-30.779v-380.496c230.613-72.826 398.29-288.731 398.29-543.1zm-459.848 892.817H452.288v-336.531c39.106 8.519 79.654 13.131 121.276 13.131 37.48 0 74.092-3.741 109.568-10.686v334.086zm-109.569-384.959c-280.034 0-507.858-227.824-507.858-507.858s227.824-507.858 507.858-507.858 507.858 227.824 507.858 507.858-227.823 507.858-507.858 507.858z"></path>
    <path fill="#f9d015" d="M2806.802 551.535c-280.482 0-507.858 227.376-507.858 507.858 0 384.741 507.858 892.599 507.858 892.599s507.858-461.689 507.858-892.599c-.001-280.483-227.376-507.858-507.858-507.858zm0 661.754c-84.995 0-153.896-68.902-153.896-153.896 0-84.995 68.902-153.896 153.896-153.896 84.995 0 153.896 68.902 153.896 153.896 0 84.994-68.902 153.896-153.896 153.896z"></path>
    <path fill="#ddb510" d="m3190.16 726.501-252.382 252.382c14.442 23.443 22.92 50.954 22.92 80.509 0 84.994-68.902 153.896-153.896 153.896-29.555 0-57.066-8.478-80.509-22.92l-286.806 286.806c150.308 257.784 367.315 474.816 367.315 474.816s507.858-461.689 507.858-892.599c-.001-127.393-47.016-243.736-124.5-332.89z"></path>
    <path fill="#4b31aa" d="M2806.804 520.753c-297.002 0-538.637 241.635-538.637 538.637 0 392.969 495.767 893.26 516.875 914.36 3.57 3.57 7.85 5.92 12.349 7.404.615.203 7.708 1.614 9.413 1.614h82.073a30.79 30.79 0 0 0 20.702-8.003c21.153-19.229 517.935-475.899 517.935-915.375 0-297.002-241.635-538.637-538.637-538.637h-82.073zm.925 1387.847c-94.547-99.905-478.003-525.171-478.003-849.21 0-263.059 214.02-477.079 477.079-477.079s477.079 214.02 477.079 477.079c-.001 362.122-380.414 755.873-476.155 849.21z"></path>
    <path fill="#4b31aa" d="M2991.48 1059.39c0-101.829-82.847-184.676-184.676-184.676s-184.676 82.847-184.676 184.676c0 101.828 82.847 184.676 184.676 184.676s184.676-82.848 184.676-184.676zm-143.639 115.934c-47.74-16.955-82.081-62.454-82.081-115.935s34.34-98.98 82.081-115.935c47.74 16.955 82.08 62.454 82.08 115.935 0 53.482-34.34 98.98-82.08 115.935z"></path>
</svg>